<?xml version="1.0" encoding="UTF-8" standalone="no"?>
<svg
   xmlns:dc="http://purl.org/dc/elements/1.1/"
   xmlns:cc="http://creativecommons.org/ns#"
   xmlns:rdf="http://www.w3.org/1999/02/22-rdf-syntax-ns#"
   xmlns:svg="http://www.w3.org/2000/svg"
   xmlns="http://www.w3.org/2000/svg"
   viewBox="0 0 1066.6667 1066.6667"
   height="1066.6667"
   width="1066.6667"
   xml:space="preserve"
   id="svg2"
   version="1.1"><metadata
     id="metadata8"><rdf:RDF><cc:Work
         rdf:about=""><dc:format>image/svg+xml</dc:format><dc:type
           rdf:resource="http://purl.org/dc/dcmitype/StillImage" /></cc:Work></rdf:RDF></metadata><defs
     id="defs6"><clipPath
       id="clipPath20"
       clipPathUnits="userSpaceOnUse"><path
         id="path18"
         d="M 0,800 H 800 V 0 H 0 Z" /></clipPath></defs><g
     transform="matrix(1.3333333,0,0,-1.3333333,0,1066.6667)"
     id="g10"><path
       id="path12"
       style="fill:#ffffff;fill-opacity:1;fill-rule:nonzero;stroke:none"
       d="M 0.001,0 H 800 V 800 H 10e-4 Z" /><g
       id="g14"><g
         clip-path="url(#clipPath20)"
         id="g16"><g
           transform="translate(556.3574,235.6025)"
           id="g22"><path
             id="path24"
             style="fill:#8df7ff;fill-opacity:1;fill-rule:nonzero;stroke:none"
             d="m 0,0 -76.578,13.898 -46.481,27.798 -23.045,35.155 -5.217,33.212 17.104,38.631 11.158,11.707 19.5,7.201 h 5.898 l 20.105,-11.032 44.675,11.032 15.738,29.884 25.958,8.846 7.562,7.971 c 0,0 -8.789,66.789 -49.258,89.014 -40.469,22.225 -74.194,39.242 -83.881,42.513 -9.686,3.271 -77.081,12.545 -93.895,10.219 l 24.527,-11.854 c 0,0 -79.853,-5.222 -98.926,-30.815 h 28.424 c 0,0 -21.909,-14.97 -44.483,-34.591 -22.574,-19.622 -20.733,-15.534 -20.733,-15.534 l 17.169,3.271 -54.984,-74.97 -22.723,-34.986 c 0,0 -5.364,55.12 -6.751,58.011 -1.387,2.891 27.84,71.565 27.84,71.565 l 55.801,77.671 c 0,0 108.754,51.644 111.801,48.407 3.047,-3.237 118.341,-19.265 122.535,-17.339 4.194,1.926 79.984,-44.667 79.984,-44.667 L 58.657,286.146 82.849,190.013 86.494,135.715 68.279,82.995 42.028,35.93 -1.54,-3.887" /></g><g
           transform="translate(445.4414,448.916)"
           id="g26"><path
             id="path28"
             style="fill:#d1d3d4;fill-opacity:1;fill-rule:nonzero;stroke:none"
             d="m 0,0 c 0,0 -31.272,2.317 -50.281,-25.888 0,0 11.822,4.988 27.725,0.465 0,0 -71.874,-26.628 -65.129,-140.27 0,0 4.817,19.575 16.556,33.725 0,0 -11.137,-93.533 42.4,-130.347 38.427,-26.424 106.764,12.003 106.764,12.003 l 34.9,24.835 -3.559,8.277 c 0,0 -82.564,6.589 -97.359,28.206 -14.795,21.618 -50.034,49.055 -50.034,49.055 0,0 -6.131,21.831 -4.905,31.151 1.226,9.318 13.489,43.453 14.716,48.46 1.227,5.007 21.986,38.57 21.986,38.57 l -8.54,14.776 z" /></g><g
           transform="translate(511.0361,475.9917)"
           id="g30"><path
             id="path32"
             style="fill:#d1d3d4;fill-opacity:1;fill-rule:nonzero;stroke:none"
             d="m 0,0 c 0,0 -10.102,10.193 -37.695,18.778 0,0 11.317,-4.419 20.295,-14.104 0,0 -1.474,-3.679 0,-8.278 1.472,-4.598 -8.338,-1.226 -14.47,7.972 0,0 7.494,-17.168 17.775,-21.114 0,0 -28.506,-3.193 -42.916,11.873 0,0 7.359,-13.738 18.396,-16.964 0,0 -11.651,5.664 -21.461,7.503 0,0 6.824,-2.505 10.73,-5.519 0,0 -16.249,6.132 -39.55,2.76 0,0 21.158,1.541 40.471,-10.421 l 35.565,-4.188 3.064,9.865 c 0,0 2.453,5.424 2.453,6.004 0,0.579 2.388,10.96 2.388,10.96 z" /></g><g
           transform="translate(553.1689,473.2578)"
           id="g34"><path
             id="path36"
             style="fill:#d1d3d4;fill-opacity:1;fill-rule:nonzero;stroke:none"
             d="M 0,0 C 0,0 4.344,-11.805 3.188,-20.185 H -7.166 c 0,0 -33.111,34.134 -74.398,41.697 0,0 54.332,-18.589 71.111,-47.414 l 4.514,-3.066 15.898,0.404 c 0,0 0.886,16.25 -9.959,28.564" /></g><g
           transform="translate(561.3184,458.0132)"
           id="g38"><path
             id="path40"
             style="fill:#d1d3d4;fill-opacity:1;fill-rule:nonzero;stroke:none"
             d="m 0,0 6.351,-7.83 c 0,0 4.904,4.03 0,20.935 -4.907,16.906 8.584,-16.963 8.584,-16.963 l -1.636,-9.865 -5.831,-5.036 -5.641,2.68 z" /></g><g
           transform="translate(362.6626,591.6514)"
           id="g42"><path
             id="path44"
             style="fill:#d1d3d4;fill-opacity:1;fill-rule:nonzero;stroke:none"
             d="m 0,0 c 0,0 49.332,-5.519 95.181,-40.47 0,0 -42.806,24.871 -86.597,26.98 z" /></g><g
           transform="translate(232.6685,494.7695)"
           id="g46"><path
             id="path48"
             style="fill:#d1d3d4;fill-opacity:1;fill-rule:nonzero;stroke:none"
             d="m 0,0 c 0,0 19.009,22.687 58.865,26.979 0,0 -74.193,-82.495 -98.415,-191.617 0,0 -20.478,33.927 -22.217,49.002 -1.739,15.075 17.618,28.859 17.618,33.004 0,4.145 45.376,73.434 45.376,73.434 l 13.796,13.49 z" /></g><g
           transform="translate(285.6284,553.2148)"
           id="g50"><path
             id="path52"
             style="fill:#d1d3d4;fill-opacity:1;fill-rule:nonzero;stroke:none"
             d="m 0,0 c 0,0 21.632,6.75 51.398,-3.287 0,0 -27.776,6.057 -60.119,-3.169 -32.113,-9.159 -0.799,-0.59 -0.799,-0.59 z" /></g><g
           transform="translate(537.0107,448.916)"
           id="g54"><path
             id="path56"
             style="fill:#ffd652;fill-opacity:1;fill-rule:nonzero;stroke:none"
             d="m 0,0 h 4.496 l 3.271,-4.223 h 18.35 l 6.585,-6.33 35.155,-46.812 c 0,0 6.133,-18.396 0,-29.841 -6.13,-11.446 -17.168,-23.659 -29.432,-24.91 -12.263,-1.252 -23.196,-2.33 -29.433,0 -6.235,2.329 -5.213,0 -5.213,0 L -9.98,-107.5 c 0,0 15.292,0.825 18.666,2.205 3.372,1.38 3.832,6.132 2.758,9.504 -1.073,3.372 -9.307,8.892 -9.307,8.892 l -32.082,15.329 c 0,0 -15.569,9.351 -16.599,9.657 -1.03,0.307 -17.288,6.694 -18.199,7.205 -0.911,0.512 -7.304,4.795 -8.415,5.54 -1.112,0.745 -8.99,4.305 -9.716,6.511 -0.725,2.206 -17.587,23.667 -18.2,25.353 -0.613,1.686 -3.372,9.148 -2.452,10.322 0.919,1.175 6.745,4.396 7.818,4.396 1.072,0 21.001,-1.382 22.228,-1.535 1.226,-0.153 44.148,-0.613 44.608,-0.613 0.46,0 12.264,-0.46 13.643,0.766 1.379,1.227 15.79,3.22 15.79,3.22 z" /></g><g
           transform="translate(539.2148,449.0884)"
           id="g58"><path
             id="path60"
             style="fill:#f9aa38;fill-opacity:1;fill-rule:nonzero;stroke:none"
             d="m 0,0 c 0,0 -5.411,-27.662 -47.344,-13.363 0,0 -45.638,8.017 -50.593,-2.637 -4.955,-10.651 -10.098,1.44 -10.098,1.44 l 2.305,7.406 c 0,0 5.159,4.395 6.489,4.395 1.329,0 28.593,-3.46 29.987,-1.679 1.396,1.781 32.301,-2.716 32.301,-2.716 l 19.52,3.014 z" /></g><g
           transform="translate(533.8164,446.1753)"
           id="g62"><path
             id="path64"
             style="fill:#f9aa38;fill-opacity:1;fill-rule:nonzero;stroke:none"
             d="m 0,0 5.747,-5.826 h 24.987 c 0,0 0.851,2.229 0.538,5.213 -0.312,2.983 -5.75,-2.606 -5.75,-2.606 L 15.252,-1.482 8.354,0.263 4.672,2.741 Z" /></g><g
           transform="translate(551.3965,350.9795)"
           id="g66"><path
             id="path68"
             style="fill:#f9aa38;fill-opacity:1;fill-rule:nonzero;stroke:none"
             d="m 0,0 c 0,0 3.702,10.027 -4.78,16.147 -8.484,6.12 -8.84,5.521 -11.826,9.231 -2.986,3.71 -11.312,10.532 -21.233,13.806 -9.923,3.273 -13.237,5.578 -16.916,8.03 -3.679,2.453 -8.707,11.331 -15.636,13.944 -6.927,2.613 -9.297,8.853 -14.417,11.585 -5.118,2.732 -7.044,14.328 -15.322,16.627 -8.278,2.3 -11.671,-1.986 -11.671,-1.986 l 0.55,-12.748 c 0,0 23.566,-26.591 29.295,-29.612 5.728,-3.021 29.04,-10.581 31.494,-11.707 2.452,-1.126 24.526,-14.819 29.432,-17.17 C -16.125,13.796 -6.313,7.051 -5.7,5.518 -5.088,3.985 0,0 0,0" /></g><g
           transform="translate(561.2891,434.3721)"
           id="g70"><path
             id="path72"
             style="fill:#231f20;fill-opacity:1;fill-rule:nonzero;stroke:none"
             d="M 0,0 C 0,0 -1.38,4.14 -3.679,3.986 -5.979,3.833 -11.037,1.993 -9.657,0 -8.278,-1.992 0.61,-1.403 0,0" /></g><g
           transform="translate(563.1279,428.7007)"
           id="g74"><path
             id="path76"
             style="fill:#231f20;fill-opacity:1;fill-rule:nonzero;stroke:none"
             d="m 0,0 c 0,0 -1.532,-2.606 -4.752,-3.066 0,0 4.446,-0.46 4.752,3.066" /></g><g
           transform="translate(612.8613,392.1709)"
           id="g78"><path
             id="path80"
             style="fill:#231f20;fill-opacity:1;fill-rule:nonzero;stroke:none"
             d="m 0,0 -36.55,46.192 5.52,7.353 c 0,0 -28.662,174.754 -258.455,146.447 l -12.264,-2.453 c 19.212,2.044 41.288,-5.722 41.288,-5.722 -68.532,-5.311 -103.016,-46.602 -103.016,-46.602 10.221,6.132 37.201,8.175 37.201,8.175 -40.877,-17.577 -81.348,-71.536 -81.348,-71.536 9.403,9.402 35.156,22.482 35.156,22.482 -37.2,-29.023 -73.173,-107.102 -73.173,-107.102 l 7.766,-21.665 c 36.791,97.29 95.174,144.762 95.174,144.762 -14.453,-3.249 -26.498,-8.227 -26.498,-8.227 15.943,16.759 68.398,47.674 68.398,47.674 -15.124,1.634 -29.562,-0.664 -29.562,-0.664 59.273,36.79 129.101,19.468 129.101,19.468 -29.563,19.803 -51.705,17.372 -51.712,17.374 57.202,-3.277 163.159,-4.497 212.847,-138.222 l -7.553,-9.81 38.213,-51.506 c 0,0 4.496,-72.356 -79.51,-45.273 0,0 21.878,-12.99 46.543,-9.199 C -9.731,-53.028 4.861,-23.914 0,0" /></g><g
           transform="translate(539.2148,449.0884)"
           id="g82"><path
             id="path84"
             style="fill:#231f20;fill-opacity:1;fill-rule:nonzero;stroke:none"
             d="m 0,0 c 0,0 -5.152,-20.961 -31.089,-16 0,0 8.461,0.68 13.643,5.275 0,0 -11.067,-3.983 -34.061,0 -22.995,3.98 -43.536,5.308 -48.748,3.571 0,0 2.146,-33.315 55.186,-53.243 53.04,-19.93 61.318,-34.645 58.558,-43.843 -2.76,-9.197 -26.949,-2.124 -26.949,-2.124 0,0 19.963,-3.025 20.511,7.336 0.549,10.361 -38.937,26.367 -57.026,32.806 -18.088,6.437 -39.243,19.621 -44.761,27.592 -5.519,7.971 -15.024,19.417 -13.797,31.476 l 4.598,4.395 h 30.354 c 0,0 -21.462,10.731 -30.354,11.651 0,0 23.301,-0.307 37.711,-7.972 l -5.883,5.519 c 0,0 14.054,-11.651 31.943,-4.599 0,0 -12.876,1.839 -17.168,7.052 0,0 11,-3.155 18.701,0 0,0 -9.428,1.686 -13.03,11.497 0,0 7.942,-9.581 14.257,-8.125 0,0 -3.679,8.584 4.905,13.183 0,0 -2.897,6.587 -7.721,9.613 0,0 27.036,-12.679 40.22,-35.06" /></g><g
           transform="translate(471.3564,446.4312)"
           id="g86"><path
             id="path88"
             style="fill:#231f20;fill-opacity:1;fill-rule:nonzero;stroke:none"
             d="m 0,0 c 0,0 -43.944,13.695 -65.405,-11.242 0,0 16.147,2.862 27.592,-1.43 l 1.635,-6.132 c 0,0 -44.967,-8.379 -56.616,-58.865 0,0 8.789,17.17 26.57,28.411 0,0 -51.507,-64.866 13.899,-138.988 0,0 -8.584,15.124 -7.359,29.433 0,0 12.674,-33.52 40.88,-45.783 0,0 -14.717,14.307 -16.76,25.753 0,0 40.367,-45.375 122.584,-44.149 0,0 31.119,15.534 50.332,40.06 0,0 -30.659,-16.352 -63.77,-14.716 0,0 15.124,3.271 26.161,15.534 0,0 -82.684,-26.466 -125.496,14.308 -34.338,32.704 -24.937,68.267 -24.937,68.267 0,0 10.628,-38.835 48.646,-38.835 0,0 -31.477,17.169 -32.703,42.923 -1.226,25.753 8.176,44.148 34.747,43.74 l -29.949,20.07 -4.798,27.144 c 0,0 3.271,2.658 11.037,2.658 7.768,0 26.571,-2.658 26.571,-2.658 z" /></g><g
           transform="translate(551.3965,345.665)"
           id="g90"><path
             id="path92"
             style="fill:#231f20;fill-opacity:1;fill-rule:nonzero;stroke:none"
             d="m 0,0 c 0,0 6.327,6.745 1.774,16.556 -4.553,9.811 -11.095,10.629 -17.227,16.147 -6.131,5.519 -9.196,8.175 -12.467,10.22 0,0 6.539,-5.926 10.015,-10.628 3.475,-4.702 7.564,-6.54 10.834,-9.198 3.269,-2.657 5.721,-8.993 4.496,-14.307 -1.227,-5.314 0,-7.154 0,-7.154 z" /></g><g
           transform="translate(457.458,435.7256)"
           id="g94"><path
             id="path96"
             style="fill:#231f20;fill-opacity:1;fill-rule:nonzero;stroke:none"
             d="m 0,0 c 0,0 2.659,-2.477 5.314,-7.025 2.658,-4.549 7.153,-8.635 11.855,-10.679 4.702,-2.045 7.972,-2.862 11.855,-8.381 3.884,-5.519 10.015,-9.811 15.739,-11.037 5.723,-1.227 17.575,-8.788 21.256,-14.307 0,0 -5.722,4.906 -14.102,7.359 -8.381,2.452 -19.215,5.926 -23.711,13.285 -4.496,7.357 -9.873,8.666 -14.307,11.241 C 1.584,-12.391 3.27,-3.142 0,0" /></g><g
           transform="translate(528.0029,460.1582)"
           id="g98"><path
             id="path100"
             style="fill:#fcf797;fill-opacity:1;fill-rule:nonzero;stroke:none"
             d="m 0,0 c 0,-6.054 -4.907,-10.96 -10.961,-10.96 -6.055,0 -10.961,4.906 -10.961,10.96 0,6.054 4.906,10.96 10.961,10.96 C -4.907,10.96 0,6.054 0,0" /></g><g
           transform="translate(523.0459,460.1582)"
           id="g102"><path
             id="path104"
             style="fill:#231f20;fill-opacity:1;fill-rule:nonzero;stroke:none"
             d="m 0,0 c 0,-3.316 -2.688,-6.003 -6.004,-6.003 -3.316,0 -6.006,2.687 -6.006,6.003 0,3.316 2.69,6.005 6.006,6.005 C -2.688,6.005 0,3.316 0,0" /></g><g
           transform="translate(520.5254,467.1299)"
           id="g106"><path
             id="path108"
             style="fill:#ffffff;fill-opacity:1;fill-rule:nonzero;stroke:none"
             d="m 0,0 c 0,-1.926 -1.558,-3.486 -3.483,-3.486 -1.926,0 -3.485,1.56 -3.485,3.486 0,1.924 1.559,3.485 3.485,3.485 C -1.558,3.485 0,1.924 0,0" /></g><g
           transform="translate(553.1689,473.2578)"
           id="g110"><path
             id="path112"
             style="fill:#231f20;fill-opacity:1;fill-rule:nonzero;stroke:none"
             d="M 0,0 C 0,0 12.412,-12.928 12.004,-31.324 H -11.91 c 0,0 -13.488,27.389 -48.645,45.785 0,0 27.389,-8.381 51.302,-39.653 H 5.669 c 0,0 1.688,13.95 -5.669,25.192" /></g><g
           transform="translate(405.0361,633.7236)"
           id="g114"><path
             id="path116"
             style="fill:#231f20;fill-opacity:1;fill-rule:nonzero;stroke:none"
             d="m 0,0 c -123.355,0 -223.712,-100.357 -223.712,-223.712 0,-123.355 100.357,-223.713 223.712,-223.713 123.355,0 223.712,100.358 223.712,223.713 C 223.712,-100.357 123.355,0 0,0 m 0,-475.631 c -138.909,0 -251.919,113.011 -251.919,251.919 0,138.908 113.01,251.918 251.919,251.918 138.907,0 251.918,-113.01 251.918,-251.918 C 251.918,-362.62 138.907,-475.631 0,-475.631" /></g><g
           transform="translate(280.9233,29.5234)"
           id="g118"><path
             id="path120"
             style="fill:#4b4b4b;fill-opacity:1;fill-rule:nonzero;stroke:none"
             d="m 0,0 c 0,-0.703 0.109,-1.301 0.328,-1.795 0.218,-0.494 0.517,-0.867 0.897,-1.115 0.38,-0.252 0.795,-0.377 1.244,-0.377 0.456,0 0.872,0.119 1.25,0.357 0.376,0.237 0.677,0.602 0.902,1.09 0.225,0.492 0.337,1.106 0.337,1.84 0,0.689 -0.112,1.283 -0.337,1.781 C 4.396,2.277 4.092,2.658 3.709,2.922 3.326,3.184 2.906,3.314 2.451,3.314 1.976,3.314 1.552,3.18 1.178,2.91 0.804,2.643 0.515,2.256 0.309,1.752 0.103,1.248 0,0.664 0,0 m 5.101,-3.809 v 0.256 C 4.752,-3.951 4.409,-4.275 4.07,-4.525 3.731,-4.775 3.364,-4.967 2.968,-5.096 2.572,-5.227 2.141,-5.291 1.672,-5.291 c -0.621,0 -1.196,0.131 -1.725,0.395 -0.528,0.261 -0.986,0.638 -1.371,1.125 -0.388,0.488 -0.68,1.06 -0.879,1.718 -0.199,0.66 -0.3,1.371 -0.3,2.137 0,1.621 0.396,2.887 1.188,3.791 C -0.624,4.779 0.418,5.232 1.71,5.232 2.457,5.232 3.087,5.104 3.6,4.85 4.113,4.592 4.613,4.197 5.101,3.666 v 3.828 c 0,0.531 0.105,0.934 0.318,1.205 C 5.63,8.973 5.933,9.107 6.326,9.107 6.718,9.107 7.02,8.982 7.232,8.732 7.445,8.482 7.551,8.115 7.551,7.627 V -3.809 c 0,-0.494 -0.114,-0.865 -0.342,-1.111 -0.228,-0.246 -0.522,-0.371 -0.883,-0.371 -0.355,0 -0.648,0.129 -0.879,0.385 -0.231,0.258 -0.346,0.623 -0.346,1.097" /></g><g
           transform="translate(292.3862,30.3398)"
           id="g122"><path
             id="path124"
             style="fill:#4b4b4b;fill-opacity:1;fill-rule:nonzero;stroke:none"
             d="M 0,0 H 4.702 C 4.639,0.887 4.398,1.551 3.984,1.99 3.569,2.43 3.024,2.65 2.346,2.65 1.7,2.65 1.169,2.428 0.755,1.98 0.34,1.535 0.089,0.873 0,0 M 5.071,-1.473 H 0 c 0.006,-0.588 0.125,-1.107 0.356,-1.556 0.231,-0.451 0.539,-0.789 0.921,-1.018 0.384,-0.228 0.806,-0.34 1.268,-0.34 0.31,0 0.594,0.035 0.851,0.108 0.256,0.074 0.504,0.185 0.746,0.341 0.24,0.155 0.462,0.323 0.664,0.5 0.202,0.178 0.465,0.418 0.788,0.723 0.133,0.113 0.323,0.17 0.571,0.17 0.266,0 0.481,-0.074 0.645,-0.219 0.164,-0.146 0.248,-0.351 0.248,-0.617 0,-0.234 -0.093,-0.508 -0.276,-0.822 C 6.597,-4.516 6.32,-4.816 5.951,-5.105 5.579,-5.393 5.115,-5.631 4.554,-5.822 3.994,-6.012 3.35,-6.107 2.621,-6.107 c -1.664,0 -2.96,0.476 -3.884,1.425 -0.925,0.95 -1.386,2.239 -1.386,3.866 0,0.765 0.113,1.476 0.341,2.13 0.228,0.657 0.561,1.219 0.997,1.688 0.437,0.469 0.975,0.826 1.615,1.078 0.639,0.25 1.349,0.373 2.128,0.373 1.012,0 1.881,-0.211 2.606,-0.64 C 5.764,3.387 6.307,2.834 6.667,2.156 7.027,1.479 7.209,0.787 7.209,0.086 7.209,-0.566 7.022,-0.988 6.649,-1.184 6.276,-1.375 5.75,-1.473 5.071,-1.473" /></g><g
           transform="translate(309.2725,27.625)"
           id="g126"><path
             id="path128"
             style="fill:#4b4b4b;fill-opacity:1;fill-rule:nonzero;stroke:none"
             d="m 0,0 c 0,-0.717 -0.173,-1.33 -0.522,-1.84 -0.348,-0.51 -0.863,-0.896 -1.544,-1.158 -0.68,-0.264 -1.508,-0.395 -2.483,-0.395 -0.931,0 -1.729,0.143 -2.394,0.428 -0.664,0.285 -1.156,0.643 -1.472,1.069 -0.316,0.427 -0.475,0.855 -0.475,1.287 0,0.285 0.101,0.529 0.305,0.73 0.202,0.203 0.459,0.305 0.769,0.305 0.272,0 0.48,-0.067 0.626,-0.199 0.146,-0.133 0.286,-0.321 0.418,-0.561 0.266,-0.463 0.585,-0.807 0.955,-1.035 0.37,-0.229 0.875,-0.342 1.515,-0.342 0.519,0 0.945,0.115 1.278,0.346 0.332,0.232 0.498,0.496 0.498,0.795 0,0.455 -0.172,0.787 -0.518,0.996 -0.345,0.209 -0.914,0.408 -1.705,0.599 -0.893,0.221 -1.619,0.454 -2.18,0.698 -0.56,0.242 -1.008,0.564 -1.343,0.963 -0.336,0.4 -0.504,0.89 -0.504,1.472 0,0.52 0.155,1.01 0.465,1.473 0.311,0.461 0.769,0.83 1.374,1.105 0.604,0.278 1.333,0.414 2.188,0.414 0.671,0 1.275,-0.068 1.809,-0.209 0.536,-0.138 0.983,-0.326 1.34,-0.56 0.358,-0.235 0.63,-0.494 0.816,-0.777 0.187,-0.286 0.28,-0.565 0.28,-0.838 0,-0.297 -0.1,-0.541 -0.298,-0.731 C -1.001,3.846 -1.285,3.75 -1.653,3.75 c -0.266,0 -0.492,0.076 -0.679,0.229 -0.186,0.152 -0.4,0.378 -0.641,0.683 -0.196,0.252 -0.426,0.455 -0.693,0.608 -0.266,0.152 -0.626,0.228 -1.083,0.228 -0.469,0 -0.857,-0.1 -1.168,-0.301 C -6.227,5 -6.382,4.752 -6.382,4.453 -6.382,4.18 -6.269,3.957 -6.041,3.783 -5.812,3.609 -5.506,3.465 -5.119,3.352 -4.732,3.238 -4.202,3.1 -3.523,2.934 -2.72,2.736 -2.063,2.502 -1.553,2.23 -1.043,1.959 -0.657,1.637 -0.393,1.266 -0.131,0.896 0,0.475 0,0" /></g><g
           transform="translate(313.2041,33.3027)"
           id="g130"><path
             id="path132"
             style="fill:#4b4b4b;fill-opacity:1;fill-rule:nonzero;stroke:none"
             d="m 0,0 v -7.492 c 0,-0.52 -0.124,-0.914 -0.371,-1.18 -0.247,-0.266 -0.56,-0.398 -0.94,-0.398 -0.38,0 -0.689,0.136 -0.926,0.408 -0.238,0.273 -0.356,0.662 -0.356,1.17 v 7.418 c 0,0.511 0.118,0.898 0.356,1.158 0.237,0.26 0.546,0.389 0.926,0.389 0.38,0 0.693,-0.129 0.94,-0.389 C -0.124,0.824 0,0.463 0,0 m -1.283,2.678 c -0.361,0 -0.669,0.111 -0.925,0.334 -0.257,0.22 -0.385,0.533 -0.385,0.939 0,0.369 0.131,0.67 0.394,0.908 0.262,0.239 0.569,0.356 0.916,0.356 0.336,0 0.634,-0.108 0.893,-0.322 C -0.13,4.676 0,4.363 0,3.951 0,3.553 -0.127,3.24 -0.381,3.016 -0.634,2.791 -0.935,2.678 -1.283,2.678" /></g><g
           transform="translate(317.0498,29.5898)"
           id="g134"><path
             id="path136"
             style="fill:#4b4b4b;fill-opacity:1;fill-rule:nonzero;stroke:none"
             d="m 0,0 c 0,-1.051 0.229,-1.846 0.688,-2.385 0.459,-0.539 1.053,-0.806 1.781,-0.806 0.43,0 0.837,0.115 1.22,0.345 0.384,0.233 0.695,0.58 0.936,1.045 0.24,0.467 0.361,1.031 0.361,1.696 0,1.056 -0.232,1.88 -0.698,2.468 C 3.822,2.953 3.21,3.248 2.45,3.248 1.708,3.248 1.115,2.965 0.669,2.402 0.223,1.84 0,1.037 0,0 M 7.513,3.285 V -4.246 C 7.513,-5.107 7.42,-5.848 7.236,-6.469 7.054,-7.088 6.759,-7.602 6.354,-8.008 5.948,-8.412 5.418,-8.713 4.763,-8.908 4.108,-9.105 3.292,-9.203 2.317,-9.203 c -0.893,0 -1.691,0.125 -2.394,0.375 -0.702,0.25 -1.243,0.572 -1.624,0.969 -0.379,0.394 -0.57,0.802 -0.57,1.22 0,0.317 0.108,0.575 0.324,0.774 0.215,0.199 0.475,0.299 0.778,0.299 0.38,0 0.712,-0.168 0.998,-0.502 0.138,-0.172 0.282,-0.346 0.431,-0.52 0.149,-0.174 0.315,-0.322 0.494,-0.447 0.181,-0.121 0.398,-0.213 0.651,-0.274 0.253,-0.058 0.545,-0.089 0.874,-0.089 0.671,0 1.192,0.091 1.563,0.279 0.37,0.187 0.63,0.449 0.779,0.785 0.149,0.334 0.235,0.693 0.261,1.076 0.025,0.385 0.044,1 0.056,1.85 C 4.539,-3.967 4.08,-4.393 3.556,-4.684 3.034,-4.975 2.412,-5.119 1.69,-5.119 c -0.867,0 -1.625,0.221 -2.275,0.664 -0.648,0.443 -1.147,1.064 -1.495,1.861 -0.349,0.799 -0.522,1.719 -0.522,2.764 0,0.779 0.105,1.482 0.317,2.109 0.213,0.627 0.515,1.157 0.908,1.586 0.392,0.432 0.845,0.756 1.357,0.975 0.513,0.217 1.077,0.326 1.691,0.326 0.734,0 1.371,-0.141 1.91,-0.422 0.537,-0.283 1.038,-0.724 1.5,-1.326 v 0.353 c 0,0.45 0.11,0.797 0.332,1.045 0.222,0.246 0.507,0.37 0.856,0.37 0.5,0 0.832,-0.165 0.996,-0.489 C 7.43,4.371 7.513,3.9 7.513,3.285" /></g><g
           transform="translate(328.6836,33.3418)"
           id="g138"><path
             id="path140"
             style="fill:#4b4b4b;fill-opacity:1;fill-rule:nonzero;stroke:none"
             d="M 0,0 V -0.314 C 0.455,0.287 0.954,0.729 1.496,1.012 2.037,1.293 2.659,1.434 3.362,1.434 4.046,1.434 4.657,1.285 5.195,0.986 5.733,0.689 6.136,0.268 6.401,-0.275 6.573,-0.592 6.683,-0.936 6.733,-1.301 6.784,-1.67 6.811,-2.137 6.811,-2.707 v -4.824 c 0,-0.52 -0.12,-0.914 -0.357,-1.18 -0.238,-0.266 -0.546,-0.398 -0.926,-0.398 -0.387,0 -0.7,0.136 -0.941,0.408 -0.241,0.273 -0.36,0.662 -0.36,1.17 v 4.32 c 0,0.856 -0.12,1.51 -0.357,1.961 -0.238,0.453 -0.71,0.68 -1.42,0.68 -0.462,0 -0.883,-0.137 -1.263,-0.412 C 0.807,-1.26 0.528,-1.639 0.351,-2.119 0.225,-2.506 0.161,-3.227 0.161,-4.283 v -3.248 c 0,-0.526 -0.122,-0.922 -0.365,-1.184 -0.244,-0.264 -0.559,-0.394 -0.945,-0.394 -0.374,0 -0.681,0.136 -0.922,0.408 -0.24,0.273 -0.361,0.662 -0.361,1.17 v 7.492 c 0,0.494 0.108,0.863 0.323,1.107 0.215,0.244 0.51,0.366 0.883,0.366 0.228,0 0.434,-0.053 0.619,-0.163 0.182,-0.107 0.33,-0.269 0.441,-0.482 C -0.055,0.572 0,0.309 0,0" /></g><g
           transform="translate(339.3867,30.3398)"
           id="g142"><path
             id="path144"
             style="fill:#4b4b4b;fill-opacity:1;fill-rule:nonzero;stroke:none"
             d="M 0,0 H 4.701 C 4.638,0.887 4.399,1.551 3.984,1.99 3.569,2.43 3.023,2.65 2.346,2.65 1.7,2.65 1.169,2.428 0.754,1.98 0.339,1.535 0.089,0.873 0,0 M 5.071,-1.473 H 0 c 0.007,-0.588 0.125,-1.107 0.356,-1.556 0.231,-0.451 0.538,-0.789 0.922,-1.018 0.382,-0.228 0.805,-0.34 1.267,-0.34 0.31,0 0.594,0.035 0.851,0.108 0.255,0.074 0.504,0.185 0.746,0.341 0.239,0.155 0.461,0.323 0.665,0.5 0.201,0.178 0.464,0.418 0.787,0.723 0.133,0.113 0.323,0.17 0.57,0.17 0.266,0 0.482,-0.074 0.646,-0.219 0.165,-0.146 0.247,-0.351 0.247,-0.617 0,-0.234 -0.092,-0.508 -0.276,-0.822 C 6.597,-4.516 6.32,-4.816 5.95,-5.105 5.579,-5.393 5.115,-5.631 4.554,-5.822 3.994,-6.012 3.349,-6.107 2.621,-6.107 c -1.665,0 -2.96,0.476 -3.885,1.425 -0.924,0.95 -1.386,2.239 -1.386,3.866 0,0.765 0.114,1.476 0.341,2.13 0.228,0.657 0.561,1.219 0.998,1.688 0.437,0.469 0.976,0.826 1.615,1.078 0.639,0.25 1.349,0.373 2.128,0.373 1.012,0 1.88,-0.211 2.606,-0.64 C 5.763,3.387 6.306,2.834 6.667,2.156 7.028,1.479 7.209,0.787 7.209,0.086 7.209,-0.566 7.022,-0.988 6.648,-1.184 6.275,-1.375 5.75,-1.473 5.071,-1.473" /></g><g
           transform="translate(349.9282,29.5234)"
           id="g146"><path
             id="path148"
             style="fill:#4b4b4b;fill-opacity:1;fill-rule:nonzero;stroke:none"
             d="m 0,0 c 0,-0.703 0.108,-1.301 0.327,-1.795 0.218,-0.494 0.518,-0.867 0.899,-1.115 0.379,-0.252 0.794,-0.377 1.243,-0.377 0.456,0 0.873,0.119 1.249,0.357 0.377,0.237 0.678,0.602 0.902,1.09 C 4.845,-1.348 4.958,-0.734 4.958,0 4.958,0.689 4.845,1.283 4.62,1.781 4.396,2.277 4.092,2.658 3.708,2.922 3.325,3.184 2.906,3.314 2.45,3.314 1.976,3.314 1.551,3.18 1.177,2.91 0.804,2.643 0.514,2.256 0.308,1.752 0.102,1.248 0,0.664 0,0 m 5.1,-3.809 v 0.256 C 4.751,-3.951 4.408,-4.275 4.069,-4.525 3.73,-4.775 3.364,-4.967 2.968,-5.096 2.573,-5.227 2.14,-5.291 1.672,-5.291 c -0.622,0 -1.196,0.131 -1.724,0.395 -0.529,0.261 -0.987,0.638 -1.373,1.125 -0.387,0.488 -0.679,1.06 -0.878,1.718 -0.2,0.66 -0.3,1.371 -0.3,2.137 0,1.621 0.396,2.887 1.187,3.791 0.792,0.904 1.834,1.357 3.125,1.357 C 2.457,5.232 3.087,5.104 3.6,4.85 4.112,4.592 4.613,4.197 5.1,3.666 V 7.494 C 5.1,8.025 5.206,8.428 5.418,8.699 5.63,8.973 5.933,9.107 6.326,9.107 6.718,9.107 7.02,8.982 7.232,8.732 7.444,8.482 7.551,8.115 7.551,7.627 V -3.809 C 7.551,-4.303 7.437,-4.674 7.209,-4.92 6.981,-5.166 6.687,-5.291 6.326,-5.291 5.971,-5.291 5.678,-5.162 5.447,-4.906 5.215,-4.648 5.1,-4.283 5.1,-3.809" /></g><g
           transform="translate(365.7495,29.4473)"
           id="g150"><path
             id="path152"
             style="fill:#4b4b4b;fill-opacity:1;fill-rule:nonzero;stroke:none"
             d="m 0,0 c 0,-1.033 0.236,-1.824 0.708,-2.379 0.471,-0.555 1.09,-0.832 1.856,-0.832 0.652,0 1.215,0.283 1.686,0.85 0.472,0.568 0.708,1.379 0.708,2.437 C 4.958,0.76 4.86,1.35 4.664,1.842 4.467,2.336 4.189,2.719 3.828,2.986 3.467,3.256 3.045,3.391 2.564,3.391 2.071,3.391 1.63,3.256 1.244,2.986 0.858,2.719 0.554,2.328 0.332,1.818 0.111,1.311 0,0.703 0,0 M -0.124,7.703 V 3.742 C 0.364,4.248 0.861,4.637 1.368,4.906 1.874,5.174 2.501,5.309 3.249,5.309 4.11,5.309 4.864,5.105 5.514,4.697 6.162,4.287 6.666,3.695 7.024,2.92 7.381,2.146 7.561,1.225 7.561,0.16 7.561,-0.625 7.461,-1.344 7.262,-2 7.062,-2.654 6.772,-3.223 6.393,-3.703 6.012,-4.186 5.552,-4.559 5.011,-4.82 4.469,-5.084 3.872,-5.215 3.22,-5.215 c -0.399,0 -0.775,0.047 -1.125,0.143 -0.352,0.095 -0.652,0.218 -0.898,0.375 -0.246,0.154 -0.457,0.314 -0.632,0.48 -0.174,0.164 -0.404,0.412 -0.689,0.74 v -0.255 c 0,-0.489 -0.117,-0.858 -0.351,-1.108 -0.233,-0.25 -0.531,-0.375 -0.893,-0.375 -0.367,0 -0.66,0.125 -0.878,0.375 -0.219,0.25 -0.328,0.619 -0.328,1.108 V 7.59 c 0,0.525 0.106,0.922 0.318,1.191 0.212,0.268 0.509,0.403 0.888,0.403 0.4,0 0.706,-0.127 0.922,-0.383 0.215,-0.258 0.322,-0.623 0.322,-1.098" /></g><g
           transform="translate(376.6719,23.9102)"
           id="g154"><path
             id="path156"
             style="fill:#4b4b4b;fill-opacity:1;fill-rule:nonzero;stroke:none"
             d="m 0,0 0.237,0.58 -3.191,8.035 c -0.196,0.461 -0.295,0.797 -0.295,1.006 0,0.223 0.058,0.428 0.171,0.617 0.115,0.19 0.271,0.342 0.47,0.455 0.2,0.116 0.407,0.172 0.623,0.172 0.373,0 0.654,-0.119 0.845,-0.355 0.191,-0.239 0.358,-0.578 0.503,-1.022 l 2.195,-6.383 2.08,5.938 c 0.164,0.478 0.313,0.857 0.446,1.129 0.133,0.273 0.273,0.457 0.422,0.551 0.149,0.095 0.36,0.142 0.632,0.142 0.197,0 0.385,-0.051 0.566,-0.156 0.18,-0.105 0.319,-0.246 0.417,-0.424 C 6.219,10.109 6.269,9.922 6.269,9.727 6.243,9.605 6.203,9.436 6.145,9.213 6.087,8.992 6.019,8.766 5.937,8.539 L 2.555,-0.314 C 2.263,-1.092 1.979,-1.703 1.7,-2.146 1.421,-2.59 1.053,-2.932 0.593,-3.168 0.134,-3.406 -0.485,-3.523 -1.264,-3.523 c -0.759,0 -1.329,0.082 -1.708,0.246 -0.382,0.166 -0.57,0.466 -0.57,0.902 0,0.297 0.089,0.527 0.271,0.689 0.179,0.161 0.447,0.243 0.801,0.243 0.139,0 0.276,-0.02 0.409,-0.059 0.165,-0.037 0.307,-0.057 0.427,-0.057 0.297,0 0.532,0.045 0.703,0.135 0.171,0.088 0.324,0.24 0.461,0.461 C -0.334,-0.746 -0.177,-0.424 0,0" /></g><g
           transform="translate(414.2344,34.5508)"
           id="g158"><path
             id="path160"
             style="fill:#4b4b4b;fill-opacity:1;fill-rule:nonzero;stroke:none"
             d="m 0,0 h 0.619 v 0.779 c 0,0.815 0.1,1.457 0.307,1.938 0.203,0.478 0.554,0.826 1.047,1.045 0.49,0.217 1.162,0.326 2.015,0.326 1.52,0 2.274,-0.367 2.274,-1.115 C 6.262,2.734 6.182,2.529 6.021,2.357 5.867,2.189 5.678,2.102 5.463,2.102 5.363,2.102 5.186,2.121 4.936,2.162 4.699,2.195 4.484,2.217 4.312,2.217 3.846,2.217 3.547,2.076 3.408,1.803 3.281,1.527 3.213,1.133 3.213,0.617 V 0 h 0.633 c 0.99,0 1.48,-0.297 1.48,-0.895 0,-0.419 -0.127,-0.691 -0.392,-0.804 C 4.672,-1.814 4.311,-1.871 3.846,-1.871 H 3.213 v -6.871 c 0,-0.51 -0.121,-0.901 -0.369,-1.168 -0.242,-0.272 -0.555,-0.406 -0.944,-0.406 -0.367,0 -0.67,0.134 -0.918,0.406 -0.244,0.267 -0.363,0.658 -0.363,1.168 v 6.871 h -0.715 c -0.388,0 -0.681,0.084 -0.892,0.262 -0.209,0.172 -0.315,0.4 -0.315,0.677 C -1.303,-0.307 -0.869,0 0,0" /></g><g
           transform="translate(422.7246,27.9766)"
           id="g162"><path
             id="path164"
             style="fill:#4b4b4b;fill-opacity:1;fill-rule:nonzero;stroke:none"
             d="m 0,0 v -2.168 c 0,-0.523 -0.133,-0.918 -0.375,-1.18 -0.246,-0.265 -0.559,-0.394 -0.937,-0.394 -0.381,0 -0.688,0.131 -0.926,0.4 -0.237,0.264 -0.362,0.656 -0.362,1.174 v 7.223 c 0,1.166 0.42,1.75 1.262,1.75 0.434,0 0.742,-0.135 0.934,-0.409 C -0.215,6.123 -0.109,5.723 -0.088,5.187 0.221,5.723 0.537,6.123 0.861,6.396 1.193,6.67 1.623,6.805 2.17,6.805 2.719,6.805 3.242,6.67 3.756,6.396 4.271,6.123 4.527,5.76 4.527,5.311 4.527,4.996 4.416,4.73 4.201,4.529 3.98,4.32 3.746,4.219 3.494,4.219 3.395,4.219 3.164,4.281 2.803,4.398 2.438,4.512 2.113,4.57 1.84,4.57 1.459,4.57 1.146,4.469 0.908,4.273 0.666,4.068 0.477,3.775 0.344,3.387 0.215,2.992 0.125,2.521 0.07,1.982 0.021,1.439 0,0.779 0,0" /></g><g
           transform="translate(429.5703,30.3438)"
           id="g166"><path
             id="path168"
             style="fill:#4b4b4b;fill-opacity:1;fill-rule:nonzero;stroke:none"
             d="M 0,0 H 4.701 C 4.639,0.885 4.404,1.551 3.988,1.986 3.57,2.43 3.029,2.646 2.348,2.646 1.701,2.646 1.17,2.428 0.756,1.979 0.342,1.531 0.088,0.873 0,0 M 5.074,-1.475 H 0 c 0.01,-0.588 0.125,-1.109 0.355,-1.558 0.235,-0.446 0.54,-0.785 0.924,-1.016 0.385,-0.228 0.805,-0.34 1.27,-0.34 0.31,0 0.592,0.034 0.849,0.112 0.254,0.068 0.504,0.185 0.745,0.339 0.242,0.153 0.461,0.319 0.664,0.5 0.203,0.176 0.466,0.417 0.791,0.719 0.134,0.114 0.324,0.174 0.568,0.174 0.268,0 0.48,-0.074 0.648,-0.221 0.166,-0.148 0.245,-0.351 0.245,-0.617 0,-0.236 -0.09,-0.508 -0.268,-0.82 C 6.604,-4.52 6.328,-4.818 5.955,-5.109 5.58,-5.395 5.115,-5.637 4.557,-5.822 3.998,-6.014 3.352,-6.109 2.625,-6.109 c -1.67,0 -2.963,0.472 -3.887,1.422 -0.924,0.953 -1.39,2.242 -1.39,3.869 0,0.765 0.117,1.478 0.347,2.134 0.225,0.659 0.557,1.215 0.998,1.688 0.436,0.471 0.971,0.828 1.614,1.078 0.636,0.248 1.345,0.373 2.127,0.373 1.011,0 1.88,-0.213 2.607,-0.644 C 5.764,3.387 6.314,2.834 6.67,2.156 7.031,1.475 7.211,0.787 7.211,0.082 7.211,-0.566 7.023,-0.988 6.65,-1.184 6.277,-1.377 5.752,-1.475 5.074,-1.475" /></g><g
           transform="translate(440.3594,30.3438)"
           id="g170"><path
             id="path172"
             style="fill:#4b4b4b;fill-opacity:1;fill-rule:nonzero;stroke:none"
             d="M 0,0 H 4.701 C 4.637,0.885 4.396,1.551 3.986,1.986 3.564,2.43 3.023,2.646 2.344,2.646 1.697,2.646 1.168,2.428 0.75,1.979 0.338,1.531 0.084,0.873 0,0 M 5.072,-1.475 H 0 c 0.006,-0.588 0.125,-1.109 0.354,-1.558 0.232,-0.446 0.539,-0.785 0.921,-1.016 0.383,-0.228 0.805,-0.34 1.272,-0.34 0.307,0 0.592,0.034 0.844,0.112 0.259,0.068 0.505,0.185 0.75,0.339 0.242,0.153 0.461,0.319 0.664,0.5 0.199,0.176 0.465,0.417 0.789,0.719 0.135,0.114 0.326,0.174 0.568,0.174 0.268,0 0.483,-0.074 0.65,-0.221 0.165,-0.148 0.241,-0.351 0.241,-0.617 0,-0.236 -0.088,-0.508 -0.274,-0.82 C 6.602,-4.52 6.324,-4.818 5.949,-5.109 5.578,-5.395 5.109,-5.637 4.553,-5.822 3.996,-6.014 3.346,-6.109 2.619,-6.109 c -1.668,0 -2.959,0.472 -3.887,1.422 -0.923,0.953 -1.388,2.242 -1.388,3.869 0,0.765 0.115,1.478 0.347,2.134 0.227,0.659 0.559,1.215 0.997,1.688 0.435,0.471 0.972,0.828 1.613,1.078 C 0.939,4.33 1.652,4.455 2.43,4.455 3.439,4.455 4.309,4.242 5.043,3.811 5.764,3.387 6.309,2.834 6.664,2.156 7.023,1.475 7.209,0.787 7.209,0.082 c 0,-0.648 -0.191,-1.07 -0.561,-1.266 -0.375,-0.193 -0.9,-0.291 -1.576,-0.291" /></g><g
           transform="translate(456.1953,29.5547)"
           id="g174"><path
             id="path176"
             style="fill:#4b4b4b;fill-opacity:1;fill-rule:nonzero;stroke:none"
             d="m 0,0 c 0,0.684 -0.105,1.273 -0.314,1.762 -0.209,0.492 -0.498,0.867 -0.866,1.129 -0.367,0.261 -0.783,0.396 -1.232,0.396 -0.715,0 -1.318,-0.285 -1.809,-0.844 -0.492,-0.566 -0.74,-1.396 -0.74,-2.494 0,-1.025 0.244,-1.832 0.736,-2.406 0.487,-0.572 1.086,-0.857 1.813,-0.857 0.428,0 0.83,0.125 1.197,0.371 0.371,0.254 0.664,0.627 0.883,1.127 C -0.111,-1.314 0,-0.709 0,0 M -5.084,3.768 V 3.457 c 0.486,0.6 0.994,1.041 1.525,1.324 0.518,0.283 1.118,0.426 1.782,0.426 C -0.982,5.207 -0.242,5 0.43,4.59 1.102,4.176 1.629,3.574 2.02,2.783 2.408,1.988 2.605,1.055 2.605,-0.029 2.605,-0.826 2.492,-1.561 2.27,-2.23 2.045,-2.898 1.732,-3.457 1.34,-3.91 0.947,-4.361 0.484,-4.713 -0.049,-4.957 -0.592,-5.197 -1.16,-5.32 -1.777,-5.32 c -0.739,0 -1.364,0.148 -1.866,0.447 -0.502,0.293 -0.982,0.734 -1.441,1.307 v -3.893 c 0,-1.137 -0.416,-1.711 -1.244,-1.711 -0.49,0 -0.809,0.147 -0.971,0.44 -0.152,0.298 -0.234,0.724 -0.234,1.291 V 3.754 c 0,0.496 0.107,0.859 0.32,1.107 0.215,0.241 0.512,0.366 0.885,0.366 0.369,0 0.666,-0.125 0.896,-0.375 0.235,-0.254 0.348,-0.61 0.348,-1.084" /></g><g
           transform="translate(462.6953,33.3086)"
           id="g178"><path
             id="path180"
             style="fill:#4b4b4b;fill-opacity:1;fill-rule:nonzero;stroke:none"
             d="m 0,0 v -7.502 c 0,-0.516 -0.123,-0.908 -0.369,-1.172 -0.25,-0.269 -0.561,-0.4 -0.942,-0.4 -0.38,0 -0.685,0.135 -0.927,0.406 -0.235,0.277 -0.356,0.666 -0.356,1.166 v 7.428 c 0,0.51 0.121,0.894 0.356,1.154 0.242,0.266 0.547,0.393 0.927,0.393 0.381,0 0.692,-0.127 0.942,-0.393 C -0.123,0.82 0,0.459 0,0 m -1.283,2.68 c -0.363,0 -0.67,0.113 -0.924,0.334 -0.26,0.222 -0.387,0.533 -0.387,0.937 0,0.367 0.131,0.67 0.397,0.91 0.261,0.235 0.566,0.356 0.914,0.356 0.34,0 0.635,-0.108 0.892,-0.321 C -0.131,4.678 0,4.363 0,3.951 0,3.551 -0.127,3.24 -0.377,3.016 -0.631,2.793 -0.932,2.68 -1.283,2.68" /></g><g
           transform="translate(471.0547,25.418)"
           id="g182"><path
             id="path184"
             style="fill:#4b4b4b;fill-opacity:1;fill-rule:nonzero;stroke:none"
             d="M 0,0 -2.283,3.766 -3.691,2.438 V 0.373 c 0,-0.5 -0.133,-0.883 -0.397,-1.15 -0.258,-0.272 -0.566,-0.407 -0.906,-0.407 -0.399,0 -0.715,0.131 -0.942,0.401 -0.226,0.263 -0.343,0.656 -0.343,1.174 v 11.064 c 0,0.572 0.115,1.01 0.332,1.313 0.222,0.304 0.545,0.453 0.953,0.453 0.398,0 0.713,-0.137 0.949,-0.412 0.234,-0.27 0.354,-0.674 0.354,-1.202 V 5.314 l 2.916,3.063 C -0.414,8.752 -0.143,9.018 0.051,9.154 0.24,9.293 0.471,9.363 0.74,9.363 1.066,9.363 1.334,9.26 1.557,9.055 1.768,8.848 1.877,8.588 1.877,8.281 1.877,7.902 1.523,7.393 0.822,6.76 L -0.555,5.496 2.104,1.314 C 2.297,1 2.443,0.77 2.527,0.607 2.611,0.449 2.658,0.289 2.658,0.146 2.658,-0.268 2.543,-0.588 2.316,-0.83 2.092,-1.066 1.793,-1.184 1.432,-1.184 1.115,-1.184 0.867,-1.102 0.697,-0.928 0.527,-0.754 0.291,-0.443 0,0" /></g><g
           transform="translate(476.6914,24.2344)"
           id="g186"><path
             id="path188"
             style="fill:#4b4b4b;fill-opacity:1;fill-rule:nonzero;stroke:none"
             d="m 0,0 c -0.393,0 -0.729,0.127 -1.014,0.381 -0.285,0.25 -0.429,0.605 -0.429,1.064 0,0.387 0.138,0.719 0.41,0.996 0.275,0.28 0.607,0.418 1.008,0.418 0.398,0 0.736,-0.138 1.023,-0.412 C 1.277,2.172 1.42,1.836 1.42,1.445 1.42,0.994 1.277,0.639 0.998,0.387 0.711,0.127 0.379,0 0,0" /></g><g
           transform="translate(489.5898,27.4453)"
           id="g190"><path
             id="path192"
             style="fill:#4b4b4b;fill-opacity:1;fill-rule:nonzero;stroke:none"
             d="m 0,0 c 0,-0.32 -0.098,-0.668 -0.291,-1.035 -0.191,-0.369 -0.488,-0.717 -0.887,-1.049 -0.394,-0.332 -0.89,-0.604 -1.494,-0.805 -0.601,-0.201 -1.281,-0.306 -2.031,-0.306 -1.606,0 -2.858,0.47 -3.758,1.402 -0.894,0.936 -1.346,2.189 -1.346,3.76 0,1.066 0.205,2.006 0.619,2.824 0.409,0.814 1.004,1.447 1.782,1.893 0.779,0.449 1.717,0.67 2.795,0.67 0.673,0 1.287,-0.098 1.851,-0.295 0.561,-0.196 1.033,-0.452 1.426,-0.758 0.387,-0.315 0.686,-0.645 0.889,-0.992 0.207,-0.352 0.308,-0.682 0.308,-0.989 0,-0.306 -0.113,-0.57 -0.343,-0.787 -0.235,-0.215 -0.516,-0.324 -0.838,-0.324 -0.219,0 -0.399,0.057 -0.541,0.166 -0.145,0.113 -0.305,0.291 -0.479,0.543 -0.318,0.478 -0.646,0.842 -0.996,1.078 -0.344,0.244 -0.781,0.363 -1.314,0.363 -0.762,0 -1.383,-0.298 -1.854,-0.898 -0.467,-0.596 -0.703,-1.42 -0.703,-2.453 0,-0.488 0.062,-0.94 0.184,-1.348 0.117,-0.408 0.291,-0.756 0.519,-1.045 0.231,-0.287 0.504,-0.504 0.826,-0.654 0.324,-0.152 0.682,-0.225 1.065,-0.225 0.521,0 0.966,0.119 1.336,0.36 0.377,0.242 0.703,0.607 0.986,1.103 0.158,0.291 0.328,0.518 0.51,0.684 0.181,0.162 0.408,0.248 0.675,0.248 0.317,0 0.581,-0.123 0.786,-0.361 C -0.107,0.529 0,0.27 0,0" /></g><g
           transform="translate(498.1758,29.5059)"
           id="g194"><path
             id="path196"
             style="fill:#4b4b4b;fill-opacity:1;fill-rule:nonzero;stroke:none"
             d="M 0,0 C 0,1.059 -0.234,1.881 -0.697,2.469 -1.16,3.064 -1.787,3.355 -2.572,3.355 -3.08,3.355 -3.527,3.225 -3.914,2.963 -4.301,2.701 -4.596,2.313 -4.805,1.799 -5.014,1.285 -5.119,0.686 -5.119,0 c 0,-0.68 0.101,-1.268 0.308,-1.773 0.209,-0.512 0.502,-0.899 0.887,-1.166 0.385,-0.268 0.834,-0.405 1.352,-0.405 0.785,0 1.412,0.295 1.875,0.891 C -0.234,-1.861 0,-1.041 0,0 m 2.604,0 c 0,-0.77 -0.122,-1.484 -0.356,-2.139 -0.246,-0.652 -0.592,-1.213 -1.049,-1.679 -0.455,-0.469 -1.002,-0.828 -1.633,-1.08 -0.638,-0.247 -1.349,-0.375 -2.138,-0.375 -0.785,0 -1.492,0.128 -2.121,0.382 -0.623,0.25 -1.17,0.616 -1.625,1.082 -0.461,0.477 -0.809,1.036 -1.053,1.678 -0.229,0.643 -0.35,1.354 -0.35,2.131 0,0.785 0.123,1.506 0.358,2.158 0.242,0.655 0.59,1.211 1.039,1.672 0.451,0.463 0.994,0.818 1.631,1.07 0.644,0.25 1.349,0.375 2.121,0.375 0.785,0 1.498,-0.125 2.138,-0.382 C 0.205,4.643 0.75,4.279 1.211,3.814 1.668,3.34 2.014,2.785 2.25,2.143 2.484,1.49 2.604,0.781 2.604,0" /></g><g
           transform="translate(510.6719,29.3145)"
           id="g198"><path
             id="path200"
             style="fill:#4b4b4b;fill-opacity:1;fill-rule:nonzero;stroke:none"
             d="m 0,0 v -3.445 c 0,-0.547 -0.121,-0.951 -0.369,-1.229 -0.25,-0.271 -0.572,-0.408 -0.979,-0.408 -0.392,0 -0.713,0.137 -0.951,0.408 -0.246,0.278 -0.371,0.682 -0.371,1.229 v 4.131 c 0,0.652 -0.021,1.162 -0.064,1.523 -0.045,0.354 -0.168,0.656 -0.362,0.883 -0.197,0.236 -0.509,0.351 -0.931,0.351 -0.85,0 -1.407,-0.289 -1.676,-0.88 C -5.971,1.986 -6.109,1.15 -6.109,0.057 v -3.502 c 0,-0.539 -0.123,-0.948 -0.362,-1.225 -0.25,-0.273 -0.568,-0.412 -0.965,-0.412 -0.396,0 -0.716,0.139 -0.966,0.412 -0.252,0.277 -0.377,0.686 -0.377,1.225 v 7.418 c 0,0.49 0.111,0.861 0.336,1.111 0.228,0.258 0.525,0.383 0.888,0.383 0.358,0 0.653,-0.123 0.893,-0.356 0.236,-0.238 0.353,-0.566 0.353,-0.984 V 3.881 c 0.454,0.535 0.936,0.931 1.446,1.181 0.515,0.26 1.082,0.385 1.713,0.385 0.65,0 1.211,-0.131 1.677,-0.388 0.469,-0.262 0.854,-0.657 1.161,-1.178 0.439,0.529 0.908,0.924 1.41,1.181 0.5,0.256 1.052,0.385 1.662,0.385 0.705,0 1.32,-0.142 1.834,-0.418 C 5.104,4.75 5.486,4.35 5.74,3.834 5.961,3.361 6.07,2.623 6.07,1.617 V -3.445 C 6.07,-3.992 5.949,-4.396 5.703,-4.674 5.457,-4.945 5.129,-5.082 4.725,-5.082 4.33,-5.082 4.01,-4.943 3.76,-4.67 3.51,-4.393 3.383,-3.984 3.383,-3.445 V 0.916 C 3.383,1.475 3.359,1.918 3.314,2.254 3.268,2.59 3.137,2.873 2.932,3.1 2.719,3.328 2.4,3.443 1.979,3.443 1.637,3.443 1.312,3.338 1.004,3.137 0.697,2.938 0.457,2.66 0.283,2.324 0.098,1.885 0,1.111 0,0" /></g><g
           transform="translate(389.9668,30.1328)"
           id="g202"><path
             id="path204"
             style="fill:#4b4b4b;fill-opacity:1;fill-rule:nonzero;stroke:none"
             d="M 0,0 C -0.002,0.006 -0.002,0.01 -0.002,0.018 -0.002,0.01 -0.002,0.006 0,0" /></g><g
           transform="translate(390.0977,29.3047)"
           id="g206"><path
             id="path208"
             style="fill:#4b4b4b;fill-opacity:1;fill-rule:nonzero;stroke:none"
             d="M 0,0 H 0.003 C -0.047,0.236 -0.085,0.471 -0.116,0.701 -0.085,0.469 -0.047,0.232 0,0" /></g><g
           transform="translate(390.9561,26.8984)"
           id="g210"><path
             id="path212"
             style="fill:#4b4b4b;fill-opacity:1;fill-rule:nonzero;stroke:none"
             d="M 0,0 C -0.006,0.01 -0.011,0.021 -0.017,0.033 -0.011,0.021 -0.006,0.01 0,0" /></g><g
           transform="translate(390.874,27.0586)"
           id="g214"><path
             id="path216"
             style="fill:#4b4b4b;fill-opacity:1;fill-rule:nonzero;stroke:none"
             d="M 0,0 C -0.022,0.043 -0.044,0.09 -0.065,0.133 -0.044,0.086 -0.022,0.043 0,0" /></g><g
           transform="translate(390.3389,28.377)"
           id="g218"><path
             id="path220"
             style="fill:#4b4b4b;fill-opacity:1;fill-rule:nonzero;stroke:none"
             d="M 0,0 C 0.127,-0.4 0.28,-0.787 0.457,-1.158 0.277,-0.779 0.127,-0.391 0.003,0 Z" /></g><g
           transform="translate(400.0044,40.0703)"
           id="g222"><path
             id="path224"
             style="fill:#4b4b4b;fill-opacity:1;fill-rule:nonzero;stroke:none"
             d="M 0,0 C 0.501,0 0.871,-0.041 1.294,-0.111 L 1.416,0.65 c 0,0 -1.172,0.362 -2.711,0.235 l -0.122,0.416 c 0.479,0.099 0.838,0.525 0.838,1.033 0,0.582 -0.474,1.055 -1.057,1.055 -0.583,0 -1.055,-0.473 -1.055,-1.055 0,-0.508 0.358,-0.934 0.836,-1.033 L -1.722,0.838 C -3.356,0.613 -4.657,-0.025 -4.657,-0.025 l 0.231,-0.705 c 0.988,0.33 1.846,0.529 2.624,0.613 C -1.041,-0.035 -0.467,0 0,0" /></g><g
           transform="translate(390.9365,36.2109)"
           id="g226"><path
             id="path228"
             style="fill:#4b4b4b;fill-opacity:1;fill-rule:nonzero;stroke:none"
             d="M 0,0 0.006,0.008 C 0.044,0.059 0.082,0.105 0.119,0.15 l -0.313,0.227 -0.488,0.355 c -0.027,-0.037 -0.795,-0.744 -1.401,-2.046 -0.025,0.041 -0.056,0.08 -0.09,0.119 -0.181,0.197 -0.435,0.299 -0.758,0.293 h -0.015 c -0.2,0 -0.337,0.066 -0.427,0.148 0.09,0.113 0.144,0.256 0.144,0.412 0,0.369 -0.3,0.67 -0.67,0.67 -0.369,0 -0.668,-0.301 -0.668,-0.67 0,-0.369 0.299,-0.668 0.668,-0.668 0.058,0 0.113,0.01 0.167,0.02 0.165,-0.182 0.425,-0.342 0.808,-0.334 0.196,0.002 0.341,-0.049 0.437,-0.155 0.111,-0.121 0.149,-0.296 0.16,-0.427 -10e-4,-0.002 -10e-4,-0.006 -0.003,-0.006 -0.436,-1.19 -0.311,-2.67 -0.311,-2.67 l 1.057,-0.041 c 0.022,0.539 0.099,1.482 0.372,2.23 C -0.686,-0.943 -0.027,-0.037 0,0" /></g><g
           transform="translate(409.2031,39.1855)"
           id="g230"><path
             id="path232"
             style="fill:#4b4b4b;fill-opacity:1;fill-rule:nonzero;stroke:none"
             d="m 0,0 c -0.367,0 -0.668,-0.299 -0.668,-0.668 0,-0.059 0.008,-0.113 0.023,-0.166 -0.183,-0.166 -0.343,-0.428 -0.337,-0.811 0.003,-0.197 -0.047,-0.339 -0.155,-0.435 -0.084,-0.076 -0.191,-0.115 -0.295,-0.141 -0.787,1.102 -1.756,1.776 -1.756,1.776 L -3.947,-1.26 c 0.574,-0.521 1.16,-1.174 1.728,-1.99 0.395,-0.563 0.799,-1.289 1.137,-2.014 l 1.023,0.487 c 0,0 -0.466,1.154 -1.125,2.191 0.114,0.039 0.229,0.102 0.33,0.191 0.202,0.182 0.299,0.438 0.293,0.758 -0.001,0.209 0.067,0.35 0.149,0.442 0.115,-0.086 0.258,-0.143 0.412,-0.143 0.371,0 0.67,0.301 0.67,0.67 C 0.67,-0.299 0.371,0 0,0" /></g><g
           transform="translate(406.5469,29.9844)"
           id="g234"><path
             id="path236"
             style="fill:#4b4b4b;fill-opacity:1;fill-rule:nonzero;stroke:none"
             d="m 0,0 c -1.41,-0.687 -3.729,-1.594 -6.782,-2.02 -1.198,-0.166 -2.359,-0.228 -3.428,-0.228 -1.391,0 -2.62,0.103 -3.562,0.223 -1.077,0.136 -1.918,0.302 -2.433,0.418 0.124,-0.391 0.274,-0.78 0.454,-1.159 0.003,-0.009 0.008,-0.019 0.013,-0.027 0.021,-0.043 0.043,-0.09 0.065,-0.133 0.022,-0.045 0.043,-0.088 0.065,-0.127 0.006,-0.011 0.011,-0.023 0.017,-0.033 0.303,-0.57 0.667,-1.096 1.081,-1.549 1.44,-1.576 2.907,-1.824 2.921,-1.826 l 0.023,-0.004 0.021,-0.008 c 0.013,-0.004 1.314,-0.423 3.292,-0.423 1.945,0 3.855,0.392 5.673,1.166 1.348,0.689 2.623,1.736 3.254,2.669 0.488,0.723 0.842,1.495 1.051,2.295 C 1.836,-0.34 1.924,0.342 1.871,1.059 1.475,0.793 0.848,0.412 0,0" /></g><g
           transform="translate(395.417,36.6133)"
           id="g238"><path
             id="path240"
             style="fill:#4b4b4b;fill-opacity:1;fill-rule:nonzero;stroke:none"
             d="m 0,0 c 1.557,0 2.817,-1.262 2.817,-2.816 0,-1.557 -1.26,-2.815 -2.817,-2.815 -1.555,0 -2.816,1.258 -2.816,2.815 C -2.816,-1.262 -1.555,0 0,0 m 8.241,-0.068 c 0.961,0 1.744,-0.782 1.744,-1.744 0,-0.961 -0.783,-1.745 -1.744,-1.745 -0.961,0 -1.742,0.784 -1.742,1.745 0,0.962 0.781,1.744 1.742,1.744 M -4.028,-0.736 C -4.069,-0.795 -4.68,-1.66 -5.163,-2.988 -5.525,-3.984 -5.509,-5.432 -5.509,-5.449 v -0.002 c 0,-0.34 0.019,-0.678 0.057,-1.012 0,-0.008 0,-0.012 0.002,-0.017 0.004,-0.043 0.011,-0.084 0.015,-0.127 0.03,-0.231 0.069,-0.465 0.119,-0.702 0.7,-0.177 4.878,-1.152 9.548,-0.502 2.927,0.407 5.15,1.272 6.499,1.926 1.122,0.545 1.842,1.037 2.12,1.239 C 12.573,-3.617 11.81,-2.006 11.108,-1 9.103,1.865 6.94,2.602 5.831,2.783 5.407,2.854 5.068,2.893 4.587,2.893 4.14,2.893 3.585,2.857 2.844,2.779 2.101,2.701 1.272,2.506 0.312,2.184 -1.036,1.732 -2.255,1.023 -3.215,0.135 l -0.033,-0.03 c -0.142,-0.13 -0.439,-0.406 -0.78,-0.841" /></g></g></g></g></svg>