<?xml version="1.0" standalone="no"?>
<!DOCTYPE svg PUBLIC "-//W3C//DTD SVG 20010904//EN"
 "http://www.w3.org/TR/2001/REC-SVG-20010904/DTD/svg10.dtd">
<svg version="1.0" xmlns="http://www.w3.org/2000/svg"
 width="1279.000000pt" height="1023.000000pt" viewBox="0 0 1279.000000 1023.000000"
 preserveAspectRatio="xMidYMid meet">
<metadata>
Created by potrace 1.16, written by Peter Selinger 2001-2019
</metadata>
<g transform="translate(0.000000,1023.000000) scale(0.100000,-0.100000)"
fill="#000000" stroke="none">
<path d="M6230 9304 c-793 -68 -1398 -274 -2015 -687 -557 -372 -1044 -928
-1353 -1544 -204 -404 -342 -875 -398 -1358 -25 -209 -25 -661 0 -870 100
-853 437 -1611 997 -2240 1115 -1254 2881 -1686 4449 -1088 186 70 467 208
643 315 914 553 1578 1457 1832 2493 82 334 109 575 109 955 0 316 -12 465
-60 727 -230 1259 -1061 2346 -2218 2904 -415 199 -821 316 -1301 375 -123 15
-582 27 -685 18z m660 -469 c1025 -122 1961 -692 2539 -1545 428 -632 640
-1358 618 -2110 -16 -535 -135 -1008 -372 -1485 -172 -347 -376 -637 -626
-891 -101 -103 -104 -104 -243 -104 l-91 0 65 24 c120 42 233 111 303 184 l39
40 -69 -19 c-394 -110 -873 -142 -1220 -83 -339 57 -610 203 -809 434 -149
172 -241 345 -291 550 -22 85 -27 130 -27 240 -1 74 3 148 7 165 8 28 9 27 37
-41 89 -222 280 -424 468 -494 65 -25 187 -50 240 -50 36 0 35 0 -49 57 -46
32 -132 105 -190 163 -201 200 -264 366 -239 628 12 128 25 179 66 270 58 128
179 223 320 252 l53 11 163 -80 c90 -43 233 -105 318 -136 345 -128 637 -273
753 -376 80 -70 96 -125 52 -177 -36 -42 -101 -62 -209 -62 l-91 -1 48 -25
c131 -68 336 -114 509 -115 128 0 203 10 300 42 345 114 570 442 545 796 -4
47 -13 95 -20 107 -8 11 -141 181 -295 376 l-281 354 23 31 c12 16 32 44 45
60 l22 31 -31 118 c-63 246 -206 574 -350 804 -203 324 -500 641 -795 847
-335 234 -687 392 -1105 494 -334 83 -575 111 -987 118 -388 7 -765 -18 -958
-61 l-60 -14 79 -1 c99 -1 263 -25 386 -56 155 -39 155 -39 4 -58 -518 -65
-991 -272 -1366 -596 -61 -53 -113 -101 -115 -107 -2 -7 32 1 80 17 78 27 292
68 427 83 l55 6 -92 -50 c-199 -107 -382 -242 -609 -450 -177 -163 -464 -474
-557 -605 l-21 -30 37 32 c68 59 256 178 422 268 l70 38 -82 -77 c-239 -224
-493 -574 -797 -1101 l-46 -80 6 75 c52 712 258 1310 639 1855 230 329 553
654 876 880 505 355 1102 578 1694 635 61 5 128 12 150 14 88 9 508 -4 635
-19z m-500 -751 c640 -72 1124 -235 1555 -525 498 -335 879 -831 1151 -1496
30 -72 54 -136 54 -141 0 -5 -25 -40 -55 -79 -30 -39 -55 -76 -55 -82 0 -5
135 -191 300 -413 l299 -403 1 -77 c1 -213 -84 -429 -222 -566 -77 -78 -205
-144 -320 -167 -136 -27 -373 -16 -528 24 -26 7 -15 8 41 4 101 -7 171 9 204
49 14 16 25 38 25 49 0 11 7 45 16 77 36 131 -26 249 -192 366 -55 39 -130 97
-166 129 -106 95 -118 97 -38 7 88 -98 134 -143 210 -202 57 -45 100 -112 100
-156 0 -22 -5 -19 -58 29 -132 123 -391 262 -762 409 -113 45 -247 104 -299
131 -312 163 -525 385 -611 634 -24 70 -25 101 -4 109 57 22 385 -4 714 -55
210 -33 440 -42 530 -21 24 6 46 10 47 8 6 -6 -111 -58 -143 -63 -19 -3 -37
-10 -41 -15 -3 -7 34 -9 103 -6 91 3 118 8 165 30 68 31 131 87 166 145 13 23
26 43 28 43 2 0 13 -16 25 -35 l22 -35 190 0 191 0 -6 78 c-8 116 -74 286
-142 367 l-26 30 16 -33 c29 -61 55 -183 55 -264 l0 -78 -119 0 -119 0 -50 63
c-170 213 -500 468 -708 547 -37 14 -29 3 14 -19 41 -21 86 -66 125 -124 l25
-38 -42 -39 c-41 -38 -41 -39 -41 -109 0 -67 -1 -71 -23 -71 -33 0 -98 36
-148 82 -50 46 -57 39 -15 -18 37 -51 56 -66 116 -97 l50 -25 -39 -7 c-21 -4
-85 -5 -142 -2 -57 2 -104 3 -104 1 0 -12 98 -57 169 -77 l84 -24 -34 -12
c-19 -7 -70 -15 -114 -18 -95 -6 -180 12 -270 58 l-60 30 30 -31 29 -30 -62
24 c-103 41 -259 72 -447 90 -48 4 -47 3 35 -25 87 -30 282 -110 278 -114 -2
-2 -34 2 -73 7 -109 16 -345 4 -440 -22 -113 -30 -215 -83 -287 -149 l-62 -58
79 9 c79 9 217 4 285 -10 30 -7 37 -14 56 -65 12 -31 19 -59 16 -61 -4 -2 -32
-11 -62 -21 -175 -57 -335 -158 -476 -299 -161 -161 -249 -311 -314 -533 -10
-35 -17 -63 -16 -63 2 0 20 26 41 58 83 126 195 244 316 335 51 38 55 34 18
-19 -54 -78 -137 -255 -179 -380 -112 -337 -112 -701 0 -1037 81 -241 236
-508 415 -712 l26 -30 -21 43 c-45 93 -81 225 -86 317 l-5 90 59 -113 c136
-255 323 -460 513 -562 31 -16 60 -30 64 -30 4 0 -13 22 -37 48 -94 100 -208
281 -208 330 0 8 26 -10 58 -39 196 -182 507 -362 812 -472 142 -51 364 -108
523 -133 128 -21 133 -11 -63 -128 -454 -270 -919 -424 -1475 -488 -142 -16
-578 -16 -720 0 -641 75 -1201 287 -1715 651 -228 161 -532 450 -713 676 -399
499 -655 1088 -748 1722 l-19 132 50 113 c81 178 239 481 340 649 262 435 514
763 829 1081 123 124 168 175 151 171 -73 -17 -263 -75 -320 -98 l-64 -25 44
46 c101 103 525 401 893 625 121 74 134 85 115 92 -25 10 -381 3 -413 -8 l-20
-7 20 17 c44 37 348 177 475 219 465 153 973 183 1520 90 l35 -6 -45 29 c-126
81 -280 152 -431 198 l-84 26 125 -6 c69 -3 186 -12 260 -21z m1963 -1913 l91
-89 -12 -41 c-25 -82 -88 -131 -169 -131 -155 1 -234 192 -121 297 24 23 83
52 107 53 8 0 55 -40 104 -89z"/>
<path d="M7336 5638 c20 -68 67 -152 106 -190 23 -24 88 -68 143 -99 78 -44
109 -67 142 -110 104 -134 170 -177 368 -240 102 -32 178 -66 228 -101 51 -37
27 0 -33 49 -75 61 -169 117 -229 139 -25 9 -65 23 -89 31 -60 21 -132 78
-200 159 -49 59 -71 76 -149 115 -120 60 -164 96 -230 190 -30 44 -57 79 -60
79 -2 0 -1 -10 3 -22z"/>
<path d="M8186 6138 c-43 -61 2 -148 76 -148 79 0 124 88 75 145 -21 25 -27
27 -41 16 -15 -13 -42 -12 -77 3 -12 5 -22 0 -33 -16z"/>
</g>
</svg>
