<svg width="1066.6667" height="1066.6667" xmlns="http://www.w3.org/2000/svg">
 <metadata id="metadata8">image/svg+xml</metadata>
 <defs>
  <clipPath clipPathUnits="userSpaceOnUse" id="clipPath20">
   <path d="m1.5,800l800,0l0,-800l-800,0l0,800z" id="path18"/>
  </clipPath>
 </defs>
 <g>
  <title>background</title>
  <rect fill="none" id="canvas_background" height="602" width="802" y="-1" x="-1"/>
 </g>
 <g>
  <title>Layer 1</title>
  <g id="g10" transform="matrix(1.3333333,0,0,-1.3333333,0,1066.6667) ">
   <path stroke-dasharray="2,2" fill="#ffffff" fill-rule="nonzero" d="m1.501,0l799.999,0l0,800l-799.999,0l0,-800z" id="path12"/>
   <g id="g14">
    <g id="g16" clip-path="url(#clipPath20)">
     <g id="g22">
      <path stroke-dasharray="2,2" fill="#8df7ff" fill-rule="nonzero" d="m557.85742,235.60249l-76.578,13.898l-46.481,27.798l-23.045,35.155l-5.217,33.212l17.104,38.631l11.158,11.707l19.5,7.201l5.898,0l20.105,-11.032l44.675,11.032l15.738,29.884l25.958,8.846l7.562,7.971c0,0 -8.789,66.789 -49.258,89.014c-40.469,22.225 -74.194,39.242 -83.881,42.513c-9.686,3.271 -77.081,12.545 -93.895,10.219l24.527,-11.854c0,0 -79.853,-5.222 -98.926,-30.815l28.424,0c0,0 -21.909,-14.97 -44.483,-34.591c-22.574,-19.622 -20.733,-15.534 -20.733,-15.534l17.169,3.271l-54.984,-74.97l-22.723,-34.986c0,0 -5.364,55.12 -6.751,58.011c-1.387,2.891 27.84,71.565 27.84,71.565l55.801,77.671c0,0 108.754,51.644 111.801,48.407c3.047,-3.237 118.341,-19.265 122.535,-17.339c4.194,1.926 79.984,-44.667 79.984,-44.667l49.833,-64.072l24.192,-96.133l3.645,-54.298l-18.215,-52.72l-26.251,-47.065l-43.568,-39.817" id="path24"/>
     </g>
     <g id="g26">
      <path stroke-dasharray="2,2" fill="#d1d3d4" fill-rule="nonzero" d="m446.94141,448.91599c0,0 -31.272,2.317 -50.281,-25.888c0,0 11.822,4.988 27.725,0.465c0,0 -71.874,-26.628 -65.129,-140.27c0,0 4.817,19.575 16.556,33.725c0,0 -11.137,-93.533 42.4,-130.347c38.427,-26.424 106.764,12.003 106.764,12.003l34.9,24.835l-3.559,8.277c0,0 -82.564,6.589 -97.359,28.206c-14.795,21.618 -50.034,49.055 -50.034,49.055c0,0 -6.131,21.831 -4.905,31.151c1.226,9.318 13.489,43.453 14.716,48.46c1.227,5.007 21.986,38.57 21.986,38.57l-8.54,14.776l14.76,6.982z" id="path28"/>
     </g>
     <g id="g30">
      <path stroke-dasharray="2,2" fill="#d1d3d4" fill-rule="nonzero" d="m512.5361,475.9917c0,0 -10.102,10.193 -37.695,18.778c0,0 11.317,-4.419 20.295,-14.104c0,0 -1.474,-3.679 0,-8.278c1.472,-4.598 -8.338,-1.226 -14.47,7.972c0,0 7.494,-17.168 17.775,-21.114c0,0 -28.506,-3.193 -42.916,11.873c0,0 7.359,-13.738 18.396,-16.964c0,0 -11.651,5.664 -21.461,7.503c0,0 6.824,-2.505 10.73,-5.519c0,0 -16.249,6.132 -39.55,2.76c0,0 21.158,1.541 40.471,-10.421l35.565,-4.188l3.064,9.865c0,0 2.453,5.424 2.453,6.004c0,0.579 2.388,10.96 2.388,10.96l4.955,4.873z" id="path32"/>
     </g>
     <g id="g34">
      <path stroke-dasharray="2,2" fill="#d1d3d4" fill-rule="nonzero" d="m554.66888,473.25781c0,0 4.344,-11.805 3.188,-20.185l-10.354,0c0,0 -33.111,34.134 -74.398,41.697c0,0 54.332,-18.589 71.111,-47.414l4.514,-3.066l15.898,0.404c0,0 0.886,16.25 -9.959,28.564" id="path36"/>
     </g>
     <g id="g38">
      <path stroke-dasharray="2,2" fill="#d1d3d4" fill-rule="nonzero" d="m562.81842,458.01321l6.351,-7.83c0,0 4.904,4.03 0,20.935c-4.907,16.906 8.584,-16.963 8.584,-16.963l-1.636,-9.865l-5.831,-5.036l-5.641,2.68l-1.827,16.079z" id="path40"/>
     </g>
     <g id="g42">
      <path stroke-dasharray="2,2" fill="#d1d3d4" fill-rule="nonzero" d="m364.1626,591.65143c0,0 49.332,-5.519 95.181,-40.47c0,0 -42.806,24.871 -86.597,26.98l-8.584,13.49z" id="path44"/>
     </g>
     <g id="g46">
      <path stroke-dasharray="2,2" fill="#d1d3d4" fill-rule="nonzero" d="m234.1685,494.7695c0,0 19.009,22.687 58.865,26.979c0,0 -74.193,-82.495 -98.415,-191.617c0,0 -20.478,33.927 -22.217,49.002c-1.739,15.075 17.618,28.859 17.618,33.004c0,4.145 45.376,73.434 45.376,73.434l13.796,13.49l-15.023,-4.292z" id="path48"/>
     </g>
     <g id="g50">
      <path stroke-dasharray="2,2" fill="#d1d3d4" fill-rule="nonzero" d="m287.12839,553.21478c0,0 21.632,6.75 51.398,-3.287c0,0 -27.776,6.057 -60.119,-3.169c-32.113,-9.159 -0.799,-0.59 -0.799,-0.59l9.52,7.046z" id="path52"/>
     </g>
     <g id="g54">
      <path stroke-dasharray="2,2" fill="#ffd652" fill-rule="nonzero" d="m538.51068,448.91599l4.496,0l3.271,-4.223l18.35,0l6.585,-6.33l35.155,-46.812c0,0 6.133,-18.396 0,-29.841c-6.13,-11.446 -17.168,-23.659 -29.432,-24.91c-12.263,-1.252 -23.196,-2.33 -29.433,0c-6.235,2.329 -5.213,0 -5.213,0l-13.759,4.616c0,0 15.292,0.825 18.666,2.205c3.372,1.38 3.832,6.132 2.758,9.504c-1.073,3.372 -9.307,8.892 -9.307,8.892l-32.082,15.329c0,0 -15.569,9.351 -16.599,9.657c-1.03,0.307 -17.288,6.694 -18.199,7.205c-0.911,0.512 -7.304,4.795 -8.415,5.54c-1.112,0.745 -8.99,4.305 -9.716,6.511c-0.725,2.206 -17.587,23.667 -18.2,25.353c-0.613,1.686 -3.372,9.148 -2.452,10.322c0.919,1.175 6.745,4.396 7.818,4.396c1.072,0 21.001,-1.382 22.228,-1.535c1.226,-0.153 44.148,-0.613 44.608,-0.613c0.46,0 12.264,-0.46 13.643,0.766c1.379,1.227 15.79,3.22 15.79,3.22l-0.561,0.748z" id="path56"/>
     </g>
     <g id="g58">
      <path stroke-dasharray="2,2" fill="#f9aa38" fill-rule="nonzero" d="m540.71478,449.08841c0,0 -5.411,-27.662 -47.344,-13.363c0,0 -45.638,8.017 -50.593,-2.637c-4.955,-10.651 -10.098,1.44 -10.098,1.44l2.305,7.406c0,0 5.159,4.395 6.489,4.395c1.329,0 28.593,-3.46 29.987,-1.679c1.396,1.781 32.301,-2.716 32.301,-2.716l19.52,3.014l17.433,4.14z" id="path60"/>
     </g>
     <g id="g62">
      <path stroke-dasharray="2,2" fill="#f9aa38" fill-rule="nonzero" d="m535.31641,446.17529l5.747,-5.826l24.987,0c0,0 0.851,2.229 0.538,5.213c-0.312,2.983 -5.75,-2.606 -5.75,-2.606l-10.27,1.737l-6.898,1.745l-3.682,2.478l-4.672,-2.741z" id="path64"/>
     </g>
     <g id="g66">
      <path stroke-dasharray="2,2" fill="#f9aa38" fill-rule="nonzero" d="m552.89648,350.97949c0,0 3.702,10.027 -4.78,16.147c-8.484,6.12 -8.84,5.521 -11.826,9.231c-2.986,3.71 -11.312,10.532 -21.233,13.806c-9.923,3.273 -13.237,5.578 -16.916,8.03c-3.679,2.453 -8.707,11.331 -15.636,13.944c-6.927,2.613 -9.297,8.853 -14.417,11.585c-5.118,2.732 -7.044,14.328 -15.322,16.627c-8.278,2.3 -11.671,-1.986 -11.671,-1.986l0.55,-12.748c0,0 23.566,-26.591 29.295,-29.612c5.728,-3.021 29.04,-10.581 31.494,-11.707c2.452,-1.126 24.526,-14.819 29.432,-17.17c4.905,-2.351 14.717,-9.096 15.33,-10.629c0.612,-1.533 5.7,-5.518 5.7,-5.518" id="path68"/>
     </g>
     <g id="g70">
      <path stroke-dasharray="2,2" fill="#231f20" fill-rule="nonzero" d="m562.78912,434.3721c0,0 -1.38,4.14 -3.679,3.986c-2.3,-0.153 -7.358,-1.993 -5.978,-3.986c1.379,-1.992 10.267,-1.403 9.657,0" id="path72"/>
     </g>
     <g id="g74">
      <path stroke-dasharray="2,2" fill="#231f20" fill-rule="nonzero" d="m564.62793,428.70071c0,0 -1.532,-2.606 -4.752,-3.066c0,0 4.446,-0.46 4.752,3.066" id="path76"/>
     </g>
     <g id="g78">
      <path stroke-dasharray="2,2" fill="#231f20" fill-rule="nonzero" d="m614.36133,392.1709l-36.55,46.192l5.52,7.353c0,0 -28.662,174.754 -258.455,146.447l-12.264,-2.453c19.212,2.044 41.288,-5.722 41.288,-5.722c-68.532,-5.311 -103.016,-46.602 -103.016,-46.602c10.221,6.132 37.201,8.175 37.201,8.175c-40.877,-17.577 -81.348,-71.536 -81.348,-71.536c9.403,9.402 35.156,22.482 35.156,22.482c-37.2,-29.023 -73.173,-107.102 -73.173,-107.102l7.766,-21.665c36.791,97.29 95.174,144.762 95.174,144.762c-14.453,-3.249 -26.498,-8.227 -26.498,-8.227c15.943,16.759 68.398,47.674 68.398,47.674c-15.124,1.634 -29.562,-0.664 -29.562,-0.664c59.273,36.79 129.101,19.468 129.101,19.468c-29.563,19.803 -51.705,17.372 -51.712,17.374c57.202,-3.277 163.159,-4.497 212.847,-138.222l-7.553,-9.81l38.213,-51.506c0,0 4.496,-72.356 -79.51,-45.273c0,0 21.878,-12.99 46.543,-9.199c32.703,5.026 47.295,34.14 42.434,58.054" id="path80"/>
     </g>
     <g id="g82">
      <path stroke-dasharray="2,2" fill="#231f20" fill-rule="nonzero" d="m540.71478,449.08841c0,0 -5.152,-20.961 -31.089,-16c0,0 8.461,0.68 13.643,5.275c0,0 -11.067,-3.983 -34.061,0c-22.995,3.98 -43.536,5.308 -48.748,3.571c0,0 2.146,-33.315 55.186,-53.243c53.04,-19.93 61.318,-34.645 58.558,-43.843c-2.76,-9.197 -26.949,-2.124 -26.949,-2.124c0,0 19.963,-3.025 20.511,7.336c0.549,10.361 -38.937,26.367 -57.026,32.806c-18.088,6.437 -39.243,19.621 -44.761,27.592c-5.519,7.971 -15.024,19.417 -13.797,31.476l4.598,4.395l30.354,0c0,0 -21.462,10.731 -30.354,11.651c0,0 23.301,-0.307 37.711,-7.972l-5.883,5.519c0,0 14.054,-11.651 31.943,-4.599c0,0 -12.876,1.839 -17.168,7.052c0,0 11,-3.155 18.701,0c0,0 -9.428,1.686 -13.03,11.497c0,0 7.942,-9.581 14.257,-8.125c0,0 -3.679,8.584 4.905,13.183c0,0 -2.897,6.587 -7.721,9.613c0,0 27.036,-12.679 40.22,-35.06" id="path84"/>
     </g>
     <g id="g86">
      <path stroke-dasharray="2,2" fill="#231f20" fill-rule="nonzero" d="m472.85641,446.43121c0,0 -43.944,13.695 -65.405,-11.242c0,0 16.147,2.862 27.592,-1.43l1.635,-6.132c0,0 -44.967,-8.379 -56.616,-58.865c0,0 8.789,17.17 26.57,28.411c0,0 -51.507,-64.866 13.899,-138.988c0,0 -8.584,15.124 -7.359,29.433c0,0 12.674,-33.52 40.88,-45.783c0,0 -14.717,14.307 -16.76,25.753c0,0 40.367,-45.375 122.584,-44.149c0,0 31.119,15.534 50.332,40.06c0,0 -30.659,-16.352 -63.77,-14.716c0,0 15.124,3.271 26.161,15.534c0,0 -82.684,-26.466 -125.496,14.308c-34.338,32.704 -24.937,68.267 -24.937,68.267c0,0 10.628,-38.835 48.646,-38.835c0,0 -31.477,17.169 -32.703,42.923c-1.226,25.753 8.176,44.148 34.747,43.74l-29.949,20.07l-4.798,27.144c0,0 3.271,2.658 11.037,2.658c7.768,0 26.571,-2.658 26.571,-2.658l-2.861,4.497z" id="path88"/>
     </g>
     <g id="g90">
      <path stroke-dasharray="2,2" fill="#231f20" fill-rule="nonzero" d="m552.89648,345.66501c0,0 6.327,6.745 1.774,16.556c-4.553,9.811 -11.095,10.629 -17.227,16.147c-6.131,5.519 -9.196,8.175 -12.467,10.22c0,0 6.539,-5.926 10.015,-10.628c3.475,-4.702 7.564,-6.54 10.834,-9.198c3.269,-2.657 5.721,-8.993 4.496,-14.307c-1.227,-5.314 0,-7.154 0,-7.154l2.575,-1.636z" id="path92"/>
     </g>
     <g id="g94">
      <path stroke-dasharray="2,2" fill="#231f20" fill-rule="nonzero" d="m458.95801,435.72559c0,0 2.659,-2.477 5.314,-7.025c2.658,-4.549 7.153,-8.635 11.855,-10.679c4.702,-2.045 7.972,-2.862 11.855,-8.381c3.884,-5.519 10.015,-9.811 15.739,-11.037c5.723,-1.227 17.575,-8.788 21.256,-14.307c0,0 -5.722,4.906 -14.102,7.359c-8.381,2.452 -19.215,5.926 -23.711,13.285c-4.496,7.357 -9.873,8.666 -14.307,11.241c-12.315,7.153 -10.629,16.402 -13.899,19.544" id="path96"/>
     </g>
     <g id="g98">
      <path stroke-dasharray="2,2" fill="#fcf797" fill-rule="nonzero" d="m529.50293,460.1582c0,-6.054 -4.907,-10.96 -10.961,-10.96c-6.055,0 -10.961,4.906 -10.961,10.96c0,6.054 4.906,10.96 10.961,10.96c6.054,0 10.961,-4.906 10.961,-10.96" id="path100"/>
     </g>
     <g id="g102">
      <path stroke-dasharray="2,2" fill="#231f20" fill-rule="nonzero" d="m524.5459,460.1582c0,-3.316 -2.688,-6.003 -6.004,-6.003c-3.316,0 -6.006,2.687 -6.006,6.003c0,3.316 2.69,6.005 6.006,6.005c3.316,0 6.004,-2.689 6.004,-6.005" id="path104"/>
     </g>
     <g id="g106">
      <path stroke-dasharray="2,2" fill="#ffffff" fill-rule="nonzero" d="m522.02539,467.12991c0,-1.926 -1.558,-3.486 -3.483,-3.486c-1.926,0 -3.485,1.56 -3.485,3.486c0,1.924 1.559,3.485 3.485,3.485c1.925,0 3.483,-1.561 3.483,-3.485" id="path108"/>
     </g>
     <g id="g110">
      <path stroke-dasharray="2,2" fill="#231f20" fill-rule="nonzero" d="m554.66888,473.25781c0,0 12.412,-12.928 12.004,-31.324l-23.914,0c0,0 -13.488,27.389 -48.645,45.785c0,0 27.389,-8.381 51.302,-39.653l14.922,0c0,0 1.688,13.95 -5.669,25.192" id="path112"/>
     </g>
     <g id="g114">
      <path stroke-dasharray="2,2" fill="#231f20" fill-rule="nonzero" d="m406.5361,633.72357c-123.355,0 -223.712,-100.357 -223.712,-223.712c0,-123.355 100.357,-223.713 223.712,-223.713c123.355,0 223.712,100.358 223.712,223.713c0,123.355 -100.357,223.712 -223.712,223.712m0,-475.631c-138.909,0 -251.919,113.011 -251.919,251.919c0,138.908 113.01,251.918 251.919,251.918c138.907,0 251.918,-113.01 251.918,-251.918c0,-138.908 -113.011,-251.919 -251.918,-251.919" id="path116"/>
     </g>
     <g id="g118">
      <path stroke-dasharray="2,2" fill="#4b4b4b" fill-rule="nonzero" d="m282.42331,29.5234c0,-0.703 0.109,-1.301 0.328,-1.795c0.218,-0.494 0.517,-0.867 0.897,-1.115c0.38,-0.252 0.795,-0.377 1.244,-0.377c0.456,0 0.872,0.119 1.25,0.357c0.376,0.237 0.677,0.602 0.902,1.09c0.225,0.492 0.337,1.106 0.337,1.84c0,0.689 -0.112,1.283 -0.337,1.781c-0.225,0.496 -0.529,0.877 -0.912,1.141c-0.383,0.262 -0.803,0.392 -1.258,0.392c-0.475,0 -0.899,-0.134 -1.273,-0.404c-0.374,-0.267 -0.663,-0.654 -0.869,-1.158c-0.206,-0.504 -0.309,-1.088 -0.309,-1.752m5.101,-3.809l0,0.256c-0.349,-0.398 -0.692,-0.722 -1.031,-0.972c-0.339,-0.25 -0.706,-0.442 -1.102,-0.571c-0.396,-0.131 -0.827,-0.195 -1.296,-0.195c-0.621,0 -1.196,0.131 -1.725,0.395c-0.528,0.261 -0.986,0.638 -1.371,1.125c-0.388,0.488 -0.68,1.06 -0.879,1.718c-0.199,0.66 -0.3,1.371 -0.3,2.137c0,1.621 0.396,2.887 1.188,3.791c0.791,0.904 1.833,1.357 3.125,1.357c0.747,0 1.377,-0.128 1.89,-0.382c0.513,-0.258 1.013,-0.653 1.501,-1.184l0,3.828c0,0.531 0.105,0.934 0.318,1.205c0.211,0.274 0.514,0.408 0.907,0.408c0.392,0 0.694,-0.125 0.906,-0.375c0.213,-0.25 0.319,-0.617 0.319,-1.105l0,-11.436c0,-0.494 -0.114,-0.865 -0.342,-1.111c-0.228,-0.246 -0.522,-0.371 -0.883,-0.371c-0.355,0 -0.648,0.129 -0.879,0.385c-0.231,0.258 -0.346,0.623 -0.346,1.097" id="path120"/>
     </g>
     <g id="g122">
      <path stroke-dasharray="2,2" fill="#4b4b4b" fill-rule="nonzero" d="m293.8862,30.3398l4.702,0c-0.063,0.887 -0.304,1.551 -0.718,1.99c-0.415,0.44 -0.96,0.66 -1.638,0.66c-0.646,0 -1.177,-0.222 -1.591,-0.67c-0.415,-0.445 -0.666,-1.107 -0.755,-1.98m5.071,-1.473l-5.071,0c0.006,-0.588 0.125,-1.107 0.356,-1.556c0.231,-0.451 0.539,-0.789 0.921,-1.018c0.384,-0.228 0.806,-0.34 1.268,-0.34c0.31,0 0.594,0.035 0.851,0.108c0.256,0.074 0.504,0.185 0.746,0.341c0.24,0.155 0.462,0.323 0.664,0.5c0.202,0.178 0.465,0.418 0.788,0.723c0.133,0.113 0.323,0.17 0.571,0.17c0.266,0 0.481,-0.074 0.645,-0.219c0.164,-0.146 0.248,-0.351 0.248,-0.617c0,-0.234 -0.093,-0.508 -0.276,-0.822c-0.185,-0.313 -0.462,-0.613 -0.831,-0.902c-0.372,-0.288 -0.836,-0.526 -1.397,-0.717c-0.56,-0.19 -1.204,-0.285 -1.933,-0.285c-1.664,0 -2.96,0.476 -3.884,1.425c-0.925,0.95 -1.386,2.239 -1.386,3.866c0,0.765 0.113,1.476 0.341,2.13c0.228,0.657 0.561,1.219 0.997,1.688c0.437,0.469 0.975,0.826 1.615,1.078c0.639,0.25 1.349,0.373 2.128,0.373c1.012,0 1.881,-0.211 2.606,-0.64c0.726,-0.426 1.269,-0.979 1.629,-1.657c0.36,-0.677 0.542,-1.369 0.542,-2.07c0,-0.652 -0.187,-1.074 -0.56,-1.27c-0.373,-0.191 -0.899,-0.289 -1.578,-0.289" id="path124"/>
     </g>
     <g id="g126">
      <path stroke-dasharray="2,2" fill="#4b4b4b" fill-rule="nonzero" d="m310.77249,27.625c0,-0.717 -0.173,-1.33 -0.522,-1.84c-0.348,-0.51 -0.863,-0.896 -1.544,-1.158c-0.68,-0.264 -1.508,-0.395 -2.483,-0.395c-0.931,0 -1.729,0.143 -2.394,0.428c-0.664,0.285 -1.156,0.643 -1.472,1.069c-0.316,0.427 -0.475,0.855 -0.475,1.287c0,0.285 0.101,0.529 0.305,0.73c0.202,0.203 0.459,0.305 0.769,0.305c0.272,0 0.48,-0.067 0.626,-0.199c0.146,-0.133 0.286,-0.321 0.418,-0.561c0.266,-0.463 0.585,-0.807 0.955,-1.035c0.37,-0.229 0.875,-0.342 1.515,-0.342c0.519,0 0.945,0.115 1.278,0.346c0.332,0.232 0.498,0.496 0.498,0.795c0,0.455 -0.172,0.787 -0.518,0.996c-0.345,0.209 -0.914,0.408 -1.705,0.599c-0.893,0.221 -1.619,0.454 -2.18,0.698c-0.56,0.242 -1.008,0.564 -1.343,0.963c-0.336,0.4 -0.504,0.89 -0.504,1.472c0,0.52 0.155,1.01 0.465,1.473c0.311,0.461 0.769,0.83 1.374,1.105c0.604,0.278 1.333,0.414 2.188,0.414c0.671,0 1.275,-0.068 1.809,-0.209c0.536,-0.138 0.983,-0.326 1.34,-0.56c0.358,-0.235 0.63,-0.494 0.816,-0.777c0.187,-0.286 0.28,-0.565 0.28,-0.838c0,-0.297 -0.1,-0.541 -0.298,-0.731c-0.199,-0.189 -0.483,-0.285 -0.851,-0.285c-0.266,0 -0.492,0.076 -0.679,0.229c-0.186,0.152 -0.4,0.378 -0.641,0.683c-0.196,0.252 -0.426,0.455 -0.693,0.608c-0.266,0.152 -0.626,0.228 -1.083,0.228c-0.469,0 -0.857,-0.1 -1.168,-0.301c-0.31,-0.197 -0.465,-0.445 -0.465,-0.744c0,-0.273 0.113,-0.496 0.341,-0.67c0.229,-0.174 0.535,-0.318 0.922,-0.431c0.387,-0.114 0.917,-0.252 1.596,-0.418c0.803,-0.198 1.46,-0.432 1.97,-0.704c0.51,-0.271 0.896,-0.593 1.16,-0.964c0.262,-0.37 0.393,-0.791 0.393,-1.266" id="path128"/>
     </g>
     <g id="g130">
      <path stroke-dasharray="2,2" fill="#4b4b4b" fill-rule="nonzero" d="m314.7041,33.3027l0,-7.492c0,-0.52 -0.124,-0.914 -0.371,-1.18c-0.247,-0.266 -0.56,-0.398 -0.94,-0.398c-0.38,0 -0.689,0.136 -0.926,0.408c-0.238,0.273 -0.356,0.662 -0.356,1.17l0,7.418c0,0.511 0.118,0.898 0.356,1.158c0.237,0.26 0.546,0.389 0.926,0.389c0.38,0 0.693,-0.129 0.94,-0.389c0.247,-0.26 0.371,-0.621 0.371,-1.084m-1.283,2.678c-0.361,0 -0.669,0.111 -0.925,0.334c-0.257,0.22 -0.385,0.533 -0.385,0.939c0,0.369 0.131,0.67 0.394,0.908c0.262,0.239 0.569,0.356 0.916,0.356c0.336,0 0.634,-0.108 0.893,-0.322c0.26,-0.217 0.39,-0.53 0.39,-0.942c0,-0.398 -0.127,-0.711 -0.381,-0.935c-0.253,-0.225 -0.554,-0.338 -0.902,-0.338" id="path132"/>
     </g>
     <g id="g134">
      <path stroke-dasharray="2,2" fill="#4b4b4b" fill-rule="nonzero" d="m318.5498,29.5898c0,-1.051 0.229,-1.846 0.688,-2.385c0.459,-0.539 1.053,-0.806 1.781,-0.806c0.43,0 0.837,0.115 1.22,0.345c0.384,0.233 0.695,0.58 0.936,1.045c0.24,0.467 0.361,1.031 0.361,1.696c0,1.056 -0.232,1.88 -0.698,2.468c-0.466,0.59 -1.078,0.885 -1.838,0.885c-0.742,0 -1.335,-0.283 -1.781,-0.846c-0.446,-0.562 -0.669,-1.365 -0.669,-2.402m7.513,3.285l0,-7.531c0,-0.861 -0.093,-1.602 -0.277,-2.223c-0.182,-0.619 -0.477,-1.133 -0.882,-1.539c-0.406,-0.404 -0.936,-0.705 -1.591,-0.9c-0.655,-0.197 -1.471,-0.295 -2.446,-0.295c-0.893,0 -1.691,0.125 -2.394,0.375c-0.702,0.25 -1.243,0.572 -1.624,0.969c-0.379,0.394 -0.57,0.802 -0.57,1.22c0,0.317 0.108,0.575 0.324,0.774c0.215,0.199 0.475,0.299 0.778,0.299c0.38,0 0.712,-0.168 0.998,-0.502c0.138,-0.172 0.282,-0.346 0.431,-0.52c0.149,-0.174 0.315,-0.322 0.494,-0.447c0.181,-0.121 0.398,-0.213 0.651,-0.274c0.253,-0.058 0.545,-0.089 0.874,-0.089c0.671,0 1.192,0.091 1.563,0.279c0.37,0.187 0.63,0.449 0.779,0.785c0.149,0.334 0.235,0.693 0.261,1.076c0.025,0.385 0.044,1 0.056,1.85c-0.399,-0.559 -0.858,-0.985 -1.382,-1.276c-0.522,-0.291 -1.144,-0.435 -1.866,-0.435c-0.867,0 -1.625,0.221 -2.275,0.664c-0.648,0.443 -1.147,1.064 -1.495,1.861c-0.349,0.799 -0.522,1.719 -0.522,2.764c0,0.779 0.105,1.482 0.317,2.109c0.213,0.627 0.515,1.157 0.908,1.586c0.392,0.432 0.845,0.756 1.357,0.975c0.513,0.217 1.077,0.326 1.691,0.326c0.734,0 1.371,-0.141 1.91,-0.422c0.537,-0.283 1.038,-0.724 1.5,-1.326l0,0.353c0,0.45 0.11,0.797 0.332,1.045c0.222,0.246 0.507,0.37 0.856,0.37c0.5,0 0.832,-0.165 0.996,-0.489c0.165,-0.326 0.248,-0.797 0.248,-1.412" id="path136"/>
     </g>
     <g id="g138">
      <path stroke-dasharray="2,2" fill="#4b4b4b" fill-rule="nonzero" d="m330.18359,33.3418l0,-0.314c0.455,0.601 0.954,1.043 1.496,1.326c0.541,0.281 1.163,0.422 1.866,0.422c0.684,0 1.295,-0.149 1.833,-0.448c0.538,-0.297 0.941,-0.718 1.206,-1.261c0.172,-0.317 0.282,-0.661 0.332,-1.026c0.051,-0.369 0.078,-0.836 0.078,-1.406l0,-4.824c0,-0.52 -0.12,-0.914 -0.357,-1.18c-0.238,-0.266 -0.546,-0.398 -0.926,-0.398c-0.387,0 -0.7,0.136 -0.941,0.408c-0.241,0.273 -0.36,0.662 -0.36,1.17l0,4.32c0,0.856 -0.12,1.51 -0.357,1.961c-0.238,0.453 -0.71,0.68 -1.42,0.68c-0.462,0 -0.883,-0.137 -1.263,-0.412c-0.38,-0.278 -0.659,-0.657 -0.836,-1.137c-0.126,-0.387 -0.19,-1.108 -0.19,-2.164l0,-3.248c0,-0.526 -0.122,-0.922 -0.365,-1.184c-0.244,-0.264 -0.559,-0.394 -0.945,-0.394c-0.374,0 -0.681,0.136 -0.922,0.408c-0.24,0.273 -0.361,0.662 -0.361,1.17l0,7.492c0,0.494 0.108,0.863 0.323,1.107c0.215,0.244 0.51,0.366 0.883,0.366c0.228,0 0.434,-0.053 0.619,-0.163c0.182,-0.107 0.33,-0.269 0.441,-0.482c0.111,-0.217 0.166,-0.48 0.166,-0.789" id="path140"/>
     </g>
     <g id="g142">
      <path stroke-dasharray="2,2" fill="#4b4b4b" fill-rule="nonzero" d="m340.88669,30.3398l4.701,0c-0.063,0.887 -0.302,1.551 -0.717,1.99c-0.415,0.44 -0.961,0.66 -1.638,0.66c-0.646,0 -1.177,-0.222 -1.592,-0.67c-0.415,-0.445 -0.665,-1.107 -0.754,-1.98m5.071,-1.473l-5.071,0c0.007,-0.588 0.125,-1.107 0.356,-1.556c0.231,-0.451 0.538,-0.789 0.922,-1.018c0.382,-0.228 0.805,-0.34 1.267,-0.34c0.31,0 0.594,0.035 0.851,0.108c0.255,0.074 0.504,0.185 0.746,0.341c0.239,0.155 0.461,0.323 0.665,0.5c0.201,0.178 0.464,0.418 0.787,0.723c0.133,0.113 0.323,0.17 0.57,0.17c0.266,0 0.482,-0.074 0.646,-0.219c0.165,-0.146 0.247,-0.351 0.247,-0.617c0,-0.234 -0.092,-0.508 -0.276,-0.822c-0.184,-0.313 -0.461,-0.613 -0.831,-0.902c-0.371,-0.288 -0.835,-0.526 -1.396,-0.717c-0.56,-0.19 -1.205,-0.285 -1.933,-0.285c-1.665,0 -2.96,0.476 -3.885,1.425c-0.924,0.95 -1.386,2.239 -1.386,3.866c0,0.765 0.114,1.476 0.341,2.13c0.228,0.657 0.561,1.219 0.998,1.688c0.437,0.469 0.976,0.826 1.615,1.078c0.639,0.25 1.349,0.373 2.128,0.373c1.012,0 1.88,-0.211 2.606,-0.64c0.725,-0.426 1.268,-0.979 1.629,-1.657c0.361,-0.677 0.542,-1.369 0.542,-2.07c0,-0.652 -0.187,-1.074 -0.561,-1.27c-0.373,-0.191 -0.898,-0.289 -1.577,-0.289" id="path144"/>
     </g>
     <g id="g146">
      <path stroke-dasharray="2,2" fill="#4b4b4b" fill-rule="nonzero" d="m351.42819,29.5234c0,-0.703 0.108,-1.301 0.327,-1.795c0.218,-0.494 0.518,-0.867 0.899,-1.115c0.379,-0.252 0.794,-0.377 1.243,-0.377c0.456,0 0.873,0.119 1.249,0.357c0.377,0.237 0.678,0.602 0.902,1.09c0.225,0.492 0.338,1.106 0.338,1.84c0,0.689 -0.113,1.283 -0.338,1.781c-0.224,0.496 -0.528,0.877 -0.912,1.141c-0.383,0.262 -0.802,0.392 -1.258,0.392c-0.474,0 -0.899,-0.134 -1.273,-0.404c-0.373,-0.267 -0.663,-0.654 -0.869,-1.158c-0.206,-0.504 -0.308,-1.088 -0.308,-1.752m5.1,-3.809l0,0.256c-0.349,-0.398 -0.692,-0.722 -1.031,-0.972c-0.339,-0.25 -0.705,-0.442 -1.101,-0.571c-0.395,-0.131 -0.828,-0.195 -1.296,-0.195c-0.622,0 -1.196,0.131 -1.724,0.395c-0.529,0.261 -0.987,0.638 -1.373,1.125c-0.387,0.488 -0.679,1.06 -0.878,1.718c-0.2,0.66 -0.3,1.371 -0.3,2.137c0,1.621 0.396,2.887 1.187,3.791c0.792,0.904 1.834,1.357 3.125,1.357c0.748,0 1.378,-0.128 1.891,-0.382c0.512,-0.258 1.013,-0.653 1.5,-1.184l0,3.828c0,0.531 0.106,0.934 0.318,1.205c0.212,0.274 0.515,0.408 0.908,0.408c0.392,0 0.694,-0.125 0.906,-0.375c0.212,-0.25 0.319,-0.617 0.319,-1.105l0,-11.436c0,-0.494 -0.114,-0.865 -0.342,-1.111c-0.228,-0.246 -0.522,-0.371 -0.883,-0.371c-0.355,0 -0.648,0.129 -0.879,0.385c-0.232,0.258 -0.347,0.623 -0.347,1.097" id="path148"/>
     </g>
     <g id="g150">
      <path stroke-dasharray="2,2" fill="#4b4b4b" fill-rule="nonzero" d="m367.24951,29.4473c0,-1.033 0.236,-1.824 0.708,-2.379c0.471,-0.555 1.09,-0.832 1.856,-0.832c0.652,0 1.215,0.283 1.686,0.85c0.472,0.568 0.708,1.379 0.708,2.437c0,0.684 -0.098,1.274 -0.294,1.766c-0.197,0.494 -0.475,0.877 -0.836,1.144c-0.361,0.27 -0.783,0.405 -1.264,0.405c-0.493,0 -0.934,-0.135 -1.32,-0.405c-0.386,-0.267 -0.69,-0.658 -0.912,-1.168c-0.221,-0.507 -0.332,-1.115 -0.332,-1.818m-0.124,7.703l0,-3.961c0.488,0.506 0.985,0.895 1.492,1.164c0.506,0.268 1.133,0.403 1.881,0.403c0.861,0 1.615,-0.204 2.265,-0.612c0.648,-0.41 1.152,-1.002 1.51,-1.777c0.357,-0.774 0.537,-1.695 0.537,-2.76c0,-0.785 -0.1,-1.504 -0.299,-2.16c-0.2,-0.654 -0.49,-1.223 -0.869,-1.703c-0.381,-0.483 -0.841,-0.856 -1.382,-1.117c-0.542,-0.264 -1.139,-0.395 -1.791,-0.395c-0.399,0 -0.775,0.047 -1.125,0.143c-0.352,0.095 -0.652,0.218 -0.898,0.375c-0.246,0.154 -0.457,0.314 -0.632,0.48c-0.174,0.164 -0.404,0.412 -0.689,0.74l0,-0.255c0,-0.489 -0.117,-0.858 -0.351,-1.108c-0.233,-0.25 -0.531,-0.375 -0.893,-0.375c-0.367,0 -0.66,0.125 -0.878,0.375c-0.219,0.25 -0.328,0.619 -0.328,1.108l0,11.322c0,0.525 0.106,0.922 0.318,1.191c0.212,0.268 0.509,0.403 0.888,0.403c0.4,0 0.706,-0.127 0.922,-0.383c0.215,-0.258 0.322,-0.623 0.322,-1.098" id="path152"/>
     </g>
     <g id="g154">
      <path stroke-dasharray="2,2" fill="#4b4b4b" fill-rule="nonzero" d="m378.17191,23.9102l0.237,0.58l-3.191,8.035c-0.196,0.461 -0.295,0.797 -0.295,1.006c0,0.223 0.058,0.428 0.171,0.617c0.115,0.19 0.271,0.342 0.47,0.455c0.2,0.116 0.407,0.172 0.623,0.172c0.373,0 0.654,-0.119 0.845,-0.355c0.191,-0.239 0.358,-0.578 0.503,-1.022l2.195,-6.383l2.08,5.938c0.164,0.478 0.313,0.857 0.446,1.129c0.133,0.273 0.273,0.457 0.422,0.551c0.149,0.095 0.36,0.142 0.632,0.142c0.197,0 0.385,-0.051 0.566,-0.156c0.18,-0.105 0.319,-0.246 0.417,-0.424c0.098,-0.176 0.148,-0.363 0.148,-0.558c-0.026,-0.122 -0.066,-0.291 -0.124,-0.514c-0.058,-0.221 -0.126,-0.447 -0.208,-0.674l-3.382,-8.853c-0.292,-0.778 -0.576,-1.389 -0.855,-1.832c-0.279,-0.444 -0.647,-0.786 -1.107,-1.022c-0.459,-0.238 -1.078,-0.355 -1.857,-0.355c-0.759,0 -1.329,0.082 -1.708,0.246c-0.382,0.166 -0.57,0.466 -0.57,0.902c0,0.297 0.089,0.527 0.271,0.689c0.179,0.161 0.447,0.243 0.801,0.243c0.139,0 0.276,-0.02 0.409,-0.059c0.165,-0.037 0.307,-0.057 0.427,-0.057c0.297,0 0.532,0.045 0.703,0.135c0.171,0.088 0.324,0.24 0.461,0.461c0.136,0.217 0.293,0.539 0.47,0.963" id="path156"/>
     </g>
     <g id="g158">
      <path stroke-dasharray="2,2" fill="#4b4b4b" fill-rule="nonzero" d="m415.73441,34.5508l0.619,0l0,0.779c0,0.815 0.1,1.457 0.307,1.938c0.203,0.478 0.554,0.826 1.047,1.045c0.49,0.217 1.162,0.326 2.015,0.326c1.52,0 2.274,-0.367 2.274,-1.115c0,-0.239 -0.08,-0.444 -0.241,-0.616c-0.154,-0.168 -0.343,-0.255 -0.558,-0.255c-0.1,0 -0.277,0.019 -0.527,0.06c-0.237,0.033 -0.452,0.055 -0.624,0.055c-0.466,0 -0.765,-0.141 -0.904,-0.414c-0.127,-0.276 -0.195,-0.67 -0.195,-1.186l0,-0.617l0.633,0c0.99,0 1.48,-0.297 1.48,-0.895c0,-0.419 -0.127,-0.691 -0.392,-0.804c-0.262,-0.115 -0.623,-0.172 -1.088,-0.172l-0.633,0l0,-6.871c0,-0.51 -0.121,-0.901 -0.369,-1.168c-0.242,-0.272 -0.555,-0.406 -0.944,-0.406c-0.367,0 -0.67,0.134 -0.918,0.406c-0.244,0.267 -0.363,0.658 -0.363,1.168l0,6.871l-0.715,0c-0.388,0 -0.681,0.084 -0.892,0.262c-0.209,0.172 -0.315,0.4 -0.315,0.677c0,0.625 0.434,0.932 1.303,0.932" id="path160"/>
     </g>
     <g id="g162">
      <path stroke-dasharray="2,2" fill="#4b4b4b" fill-rule="nonzero" d="m424.22461,27.9766l0,-2.168c0,-0.523 -0.133,-0.918 -0.375,-1.18c-0.246,-0.265 -0.559,-0.394 -0.937,-0.394c-0.381,0 -0.688,0.131 -0.926,0.4c-0.237,0.264 -0.362,0.656 -0.362,1.174l0,7.223c0,1.166 0.42,1.75 1.262,1.75c0.434,0 0.742,-0.135 0.934,-0.409c0.189,-0.273 0.295,-0.673 0.316,-1.209c0.309,0.536 0.625,0.936 0.949,1.209c0.332,0.274 0.762,0.409 1.309,0.409c0.549,0 1.072,-0.135 1.586,-0.409c0.515,-0.273 0.771,-0.636 0.771,-1.085c0,-0.315 -0.111,-0.581 -0.326,-0.782c-0.221,-0.209 -0.455,-0.31 -0.707,-0.31c-0.099,0 -0.33,0.062 -0.691,0.179c-0.365,0.114 -0.69,0.172 -0.963,0.172c-0.381,0 -0.694,-0.101 -0.932,-0.297c-0.242,-0.205 -0.431,-0.498 -0.564,-0.886c-0.129,-0.395 -0.219,-0.866 -0.274,-1.405c-0.049,-0.543 -0.07,-1.203 -0.07,-1.982" id="path164"/>
     </g>
     <g id="g166">
      <path stroke-dasharray="2,2" fill="#4b4b4b" fill-rule="nonzero" d="m431.07031,30.3438l4.701,0c-0.062,0.885 -0.297,1.551 -0.713,1.986c-0.418,0.444 -0.959,0.66 -1.64,0.66c-0.647,0 -1.178,-0.218 -1.592,-0.667c-0.414,-0.448 -0.668,-1.106 -0.756,-1.979m5.074,-1.475l-5.074,0c0.01,-0.588 0.125,-1.109 0.355,-1.558c0.235,-0.446 0.54,-0.785 0.924,-1.016c0.385,-0.228 0.805,-0.34 1.27,-0.34c0.31,0 0.592,0.034 0.849,0.112c0.254,0.068 0.504,0.185 0.745,0.339c0.242,0.153 0.461,0.319 0.664,0.5c0.203,0.176 0.466,0.417 0.791,0.719c0.134,0.114 0.324,0.174 0.568,0.174c0.268,0 0.48,-0.074 0.648,-0.221c0.166,-0.148 0.245,-0.351 0.245,-0.617c0,-0.236 -0.09,-0.508 -0.268,-0.82c-0.187,-0.317 -0.463,-0.615 -0.836,-0.906c-0.375,-0.286 -0.84,-0.528 -1.398,-0.713c-0.559,-0.192 -1.205,-0.287 -1.932,-0.287c-1.67,0 -2.963,0.472 -3.887,1.422c-0.924,0.953 -1.39,2.242 -1.39,3.869c0,0.765 0.117,1.478 0.347,2.134c0.225,0.659 0.557,1.215 0.998,1.688c0.436,0.471 0.971,0.828 1.614,1.078c0.636,0.248 1.345,0.373 2.127,0.373c1.011,0 1.88,-0.213 2.607,-0.644c0.723,-0.424 1.273,-0.977 1.629,-1.655c0.361,-0.681 0.541,-1.369 0.541,-2.074c0,-0.648 -0.188,-1.07 -0.561,-1.266c-0.373,-0.193 -0.898,-0.291 -1.576,-0.291" id="path168"/>
     </g>
     <g id="g170">
      <path stroke-dasharray="2,2" fill="#4b4b4b" fill-rule="nonzero" d="m441.85941,30.3438l4.701,0c-0.064,0.885 -0.305,1.551 -0.715,1.986c-0.422,0.444 -0.963,0.66 -1.642,0.66c-0.647,0 -1.176,-0.218 -1.594,-0.667c-0.412,-0.448 -0.666,-1.106 -0.75,-1.979m5.072,-1.475l-5.072,0c0.006,-0.588 0.125,-1.109 0.354,-1.558c0.232,-0.446 0.539,-0.785 0.921,-1.016c0.383,-0.228 0.805,-0.34 1.272,-0.34c0.307,0 0.592,0.034 0.844,0.112c0.259,0.068 0.505,0.185 0.75,0.339c0.242,0.153 0.461,0.319 0.664,0.5c0.199,0.176 0.465,0.417 0.789,0.719c0.135,0.114 0.326,0.174 0.568,0.174c0.268,0 0.483,-0.074 0.65,-0.221c0.165,-0.148 0.241,-0.351 0.241,-0.617c0,-0.236 -0.088,-0.508 -0.274,-0.82c-0.177,-0.317 -0.455,-0.615 -0.83,-0.906c-0.371,-0.286 -0.84,-0.528 -1.396,-0.713c-0.557,-0.192 -1.207,-0.287 -1.934,-0.287c-1.668,0 -2.959,0.472 -3.887,1.422c-0.923,0.953 -1.388,2.242 -1.388,3.869c0,0.765 0.115,1.478 0.347,2.134c0.227,0.659 0.559,1.215 0.997,1.688c0.435,0.471 0.972,0.828 1.613,1.078c0.638,0.248 1.351,0.373 2.129,0.373c1.009,0 1.879,-0.213 2.613,-0.644c0.721,-0.424 1.266,-0.977 1.621,-1.655c0.359,-0.681 0.545,-1.369 0.545,-2.074c0,-0.648 -0.191,-1.07 -0.561,-1.266c-0.375,-0.193 -0.9,-0.291 -1.576,-0.291" id="path172"/>
     </g>
     <g id="g174">
      <path stroke-dasharray="2,2" fill="#4b4b4b" fill-rule="nonzero" d="m457.69531,29.5547c0,0.684 -0.105,1.273 -0.314,1.762c-0.209,0.492 -0.498,0.867 -0.866,1.129c-0.367,0.261 -0.783,0.396 -1.232,0.396c-0.715,0 -1.318,-0.285 -1.809,-0.844c-0.492,-0.566 -0.74,-1.396 -0.74,-2.494c0,-1.025 0.244,-1.832 0.736,-2.406c0.487,-0.572 1.086,-0.857 1.813,-0.857c0.428,0 0.83,0.125 1.197,0.371c0.371,0.254 0.664,0.627 0.883,1.127c0.221,0.502 0.332,1.107 0.332,1.816m-5.084,3.768l0,-0.311c0.486,0.6 0.994,1.041 1.525,1.324c0.518,0.283 1.118,0.426 1.782,0.426c0.795,0 1.535,-0.207 2.207,-0.617c0.672,-0.414 1.199,-1.016 1.59,-1.807c0.388,-0.795 0.585,-1.728 0.585,-2.812c0,-0.797 -0.113,-1.532 -0.335,-2.201c-0.225,-0.668 -0.538,-1.227 -0.93,-1.68c-0.393,-0.451 -0.856,-0.803 -1.389,-1.047c-0.543,-0.24 -1.111,-0.363 -1.728,-0.363c-0.739,0 -1.364,0.148 -1.866,0.447c-0.502,0.293 -0.982,0.734 -1.441,1.307l0,-3.893c0,-1.137 -0.416,-1.711 -1.244,-1.711c-0.49,0 -0.809,0.147 -0.971,0.44c-0.152,0.298 -0.234,0.724 -0.234,1.291l0,11.193c0,0.496 0.107,0.859 0.32,1.107c0.215,0.241 0.512,0.366 0.885,0.366c0.369,0 0.666,-0.125 0.896,-0.375c0.235,-0.254 0.348,-0.61 0.348,-1.084" id="path176"/>
     </g>
     <g id="g178">
      <path stroke-dasharray="2,2" fill="#4b4b4b" fill-rule="nonzero" d="m464.19531,33.3086l0,-7.502c0,-0.516 -0.123,-0.908 -0.369,-1.172c-0.25,-0.269 -0.561,-0.4 -0.942,-0.4c-0.38,0 -0.685,0.135 -0.927,0.406c-0.235,0.277 -0.356,0.666 -0.356,1.166l0,7.428c0,0.51 0.121,0.894 0.356,1.154c0.242,0.266 0.547,0.393 0.927,0.393c0.381,0 0.692,-0.127 0.942,-0.393c0.246,-0.26 0.369,-0.621 0.369,-1.08m-1.283,2.68c-0.363,0 -0.67,0.113 -0.924,0.334c-0.26,0.222 -0.387,0.533 -0.387,0.937c0,0.367 0.131,0.67 0.397,0.91c0.261,0.235 0.566,0.356 0.914,0.356c0.34,0 0.635,-0.108 0.892,-0.321c0.26,-0.218 0.391,-0.533 0.391,-0.945c0,-0.4 -0.127,-0.711 -0.377,-0.935c-0.254,-0.223 -0.555,-0.336 -0.906,-0.336" id="path180"/>
     </g>
     <g id="g182">
      <path stroke-dasharray="2,2" fill="#4b4b4b" fill-rule="nonzero" d="m472.55469,25.418l-2.283,3.766l-1.408,-1.328l0,-2.065c0,-0.5 -0.133,-0.883 -0.397,-1.15c-0.258,-0.272 -0.566,-0.407 -0.906,-0.407c-0.399,0 -0.715,0.131 -0.942,0.401c-0.226,0.263 -0.343,0.656 -0.343,1.174l0,11.064c0,0.572 0.115,1.01 0.332,1.313c0.222,0.304 0.545,0.453 0.953,0.453c0.398,0 0.713,-0.137 0.949,-0.412c0.234,-0.27 0.354,-0.674 0.354,-1.202l0,-6.293l2.916,3.063c0.361,0.375 0.632,0.641 0.826,0.777c0.189,0.139 0.42,0.209 0.689,0.209c0.326,0 0.594,-0.103 0.817,-0.308c0.211,-0.207 0.32,-0.467 0.32,-0.774c0,-0.379 -0.354,-0.888 -1.055,-1.521l-1.377,-1.264l2.659,-4.182c0.193,-0.314 0.339,-0.544 0.423,-0.707c0.084,-0.158 0.131,-0.318 0.131,-0.461c0,-0.414 -0.115,-0.734 -0.342,-0.976c-0.224,-0.236 -0.523,-0.354 -0.884,-0.354c-0.317,0 -0.565,0.082 -0.735,0.256c-0.17,0.174 -0.406,0.485 -0.697,0.928" id="path184"/>
     </g>
     <g id="g186">
      <path stroke-dasharray="2,2" fill="#4b4b4b" fill-rule="nonzero" d="m478.19141,24.2344c-0.393,0 -0.729,0.127 -1.014,0.381c-0.285,0.25 -0.429,0.605 -0.429,1.064c0,0.387 0.138,0.719 0.41,0.996c0.275,0.28 0.607,0.418 1.008,0.418c0.398,0 0.736,-0.138 1.023,-0.412c0.279,-0.275 0.422,-0.611 0.422,-1.002c0,-0.451 -0.143,-0.806 -0.422,-1.058c-0.287,-0.26 -0.619,-0.387 -0.998,-0.387" id="path188"/>
     </g>
     <g id="g190">
      <path stroke-dasharray="2,2" fill="#4b4b4b" fill-rule="nonzero" d="m491.08981,27.4453c0,-0.32 -0.098,-0.668 -0.291,-1.035c-0.191,-0.369 -0.488,-0.717 -0.887,-1.049c-0.394,-0.332 -0.89,-0.604 -1.494,-0.805c-0.601,-0.201 -1.281,-0.306 -2.031,-0.306c-1.606,0 -2.858,0.47 -3.758,1.402c-0.894,0.936 -1.346,2.189 -1.346,3.76c0,1.066 0.205,2.006 0.619,2.824c0.409,0.814 1.004,1.447 1.782,1.893c0.779,0.449 1.717,0.67 2.795,0.67c0.673,0 1.287,-0.098 1.851,-0.295c0.561,-0.196 1.033,-0.452 1.426,-0.758c0.387,-0.315 0.686,-0.645 0.889,-0.992c0.207,-0.352 0.308,-0.682 0.308,-0.989c0,-0.306 -0.113,-0.57 -0.343,-0.787c-0.235,-0.215 -0.516,-0.324 -0.838,-0.324c-0.219,0 -0.399,0.057 -0.541,0.166c-0.145,0.113 -0.305,0.291 -0.479,0.543c-0.318,0.478 -0.646,0.842 -0.996,1.078c-0.344,0.244 -0.781,0.363 -1.314,0.363c-0.762,0 -1.383,-0.298 -1.854,-0.898c-0.467,-0.596 -0.703,-1.42 -0.703,-2.453c0,-0.488 0.062,-0.94 0.184,-1.348c0.117,-0.408 0.291,-0.756 0.519,-1.045c0.231,-0.287 0.504,-0.504 0.826,-0.654c0.324,-0.152 0.682,-0.225 1.065,-0.225c0.521,0 0.966,0.119 1.336,0.36c0.377,0.242 0.703,0.607 0.986,1.103c0.158,0.291 0.328,0.518 0.51,0.684c0.181,0.162 0.408,0.248 0.675,0.248c0.317,0 0.581,-0.123 0.786,-0.361c0.211,-0.241 0.318,-0.5 0.318,-0.77" id="path192"/>
     </g>
     <g id="g194">
      <path stroke-dasharray="2,2" fill="#4b4b4b" fill-rule="nonzero" d="m499.67581,29.5059c0,1.059 -0.234,1.881 -0.697,2.469c-0.463,0.595 -1.09,0.886 -1.875,0.886c-0.508,0 -0.955,-0.13 -1.342,-0.392c-0.387,-0.262 -0.682,-0.65 -0.891,-1.164c-0.209,-0.514 -0.314,-1.113 -0.314,-1.799c0,-0.68 0.101,-1.268 0.308,-1.773c0.209,-0.512 0.502,-0.899 0.887,-1.166c0.385,-0.268 0.834,-0.405 1.352,-0.405c0.785,0 1.412,0.295 1.875,0.891c0.463,0.592 0.697,1.412 0.697,2.453m2.604,0c0,-0.77 -0.122,-1.484 -0.356,-2.139c-0.246,-0.652 -0.592,-1.213 -1.049,-1.679c-0.455,-0.469 -1.002,-0.828 -1.633,-1.08c-0.638,-0.247 -1.349,-0.375 -2.138,-0.375c-0.785,0 -1.492,0.128 -2.121,0.382c-0.623,0.25 -1.17,0.616 -1.625,1.082c-0.461,0.477 -0.809,1.036 -1.053,1.678c-0.229,0.643 -0.35,1.354 -0.35,2.131c0,0.785 0.123,1.506 0.358,2.158c0.242,0.655 0.59,1.211 1.039,1.672c0.451,0.463 0.994,0.818 1.631,1.07c0.644,0.25 1.349,0.375 2.121,0.375c0.785,0 1.498,-0.125 2.138,-0.382c0.639,-0.25 1.184,-0.614 1.645,-1.079c0.457,-0.474 0.803,-1.029 1.039,-1.671c0.234,-0.653 0.354,-1.362 0.354,-2.143" id="path196"/>
     </g>
     <g id="g198">
      <path stroke-dasharray="2,2" fill="#4b4b4b" fill-rule="nonzero" d="m512.17191,29.3145l0,-3.445c0,-0.547 -0.121,-0.951 -0.369,-1.229c-0.25,-0.271 -0.572,-0.408 -0.979,-0.408c-0.392,0 -0.713,0.137 -0.951,0.408c-0.246,0.278 -0.371,0.682 -0.371,1.229l0,4.131c0,0.652 -0.021,1.162 -0.064,1.523c-0.045,0.354 -0.168,0.656 -0.362,0.883c-0.197,0.236 -0.509,0.351 -0.931,0.351c-0.85,0 -1.407,-0.289 -1.676,-0.88c-0.268,-0.577 -0.406,-1.413 -0.406,-2.506l0,-3.502c0,-0.539 -0.123,-0.948 -0.362,-1.225c-0.25,-0.273 -0.568,-0.412 -0.965,-0.412c-0.396,0 -0.716,0.139 -0.966,0.412c-0.252,0.277 -0.377,0.686 -0.377,1.225l0,7.418c0,0.49 0.111,0.861 0.336,1.111c0.228,0.258 0.525,0.383 0.888,0.383c0.358,0 0.653,-0.123 0.893,-0.356c0.236,-0.238 0.353,-0.566 0.353,-0.984l0,-0.246c0.454,0.535 0.936,0.931 1.446,1.181c0.515,0.26 1.082,0.385 1.713,0.385c0.65,0 1.211,-0.131 1.677,-0.388c0.469,-0.262 0.854,-0.657 1.161,-1.178c0.439,0.529 0.908,0.924 1.41,1.181c0.5,0.256 1.052,0.385 1.662,0.385c0.705,0 1.32,-0.142 1.834,-0.418c0.51,-0.279 0.892,-0.679 1.146,-1.195c0.221,-0.473 0.33,-1.211 0.33,-2.217l0,-5.062c0,-0.547 -0.121,-0.951 -0.367,-1.229c-0.246,-0.271 -0.574,-0.408 -0.978,-0.408c-0.395,0 -0.715,0.139 -0.965,0.412c-0.25,0.277 -0.377,0.686 -0.377,1.225l0,4.361c0,0.559 -0.024,1.002 -0.069,1.338c-0.046,0.336 -0.177,0.619 -0.382,0.846c-0.213,0.228 -0.532,0.343 -0.953,0.343c-0.342,0 -0.667,-0.105 -0.975,-0.306c-0.307,-0.199 -0.547,-0.477 -0.721,-0.813c-0.185,-0.439 -0.283,-1.213 -0.283,-2.324" id="path200"/>
     </g>
     <g id="g202">
      <path stroke-dasharray="2,2" fill="#4b4b4b" fill-rule="nonzero" d="m391.4668,30.1328c-0.002,0.006 -0.002,0.01 -0.002,0.018c0,-0.008 0,-0.012 0.002,-0.018" id="path204"/>
     </g>
     <g id="g206">
      <path stroke-dasharray="2,2" fill="#4b4b4b" fill-rule="nonzero" d="m391.59769,29.3047l0.003,0c-0.05,0.236 -0.088,0.471 -0.119,0.701c0.031,-0.232 0.069,-0.469 0.116,-0.701" id="path208"/>
     </g>
     <g id="g210">
      <path stroke-dasharray="2,2" fill="#4b4b4b" fill-rule="nonzero" d="m392.45609,26.8984c-0.006,0.01 -0.011,0.021 -0.017,0.033c0.006,-0.012 0.011,-0.023 0.017,-0.033" id="path212"/>
     </g>
     <g id="g214">
      <path stroke-dasharray="2,2" fill="#4b4b4b" fill-rule="nonzero" d="m392.37399,27.0586c-0.022,0.043 -0.044,0.09 -0.065,0.133c0.021,-0.047 0.043,-0.09 0.065,-0.133" id="path216"/>
     </g>
     <g id="g218">
      <path stroke-dasharray="2,2" fill="#4b4b4b" fill-rule="nonzero" d="m391.8389,28.377c0.127,-0.4 0.28,-0.787 0.457,-1.158c-0.18,0.379 -0.33,0.767 -0.454,1.158l-0.003,0z" id="path220"/>
     </g>
     <g id="g222">
      <path stroke-dasharray="2,2" fill="#4b4b4b" fill-rule="nonzero" d="m401.50439,40.0703c0.501,0 0.871,-0.041 1.294,-0.111l0.122,0.761c0,0 -1.172,0.362 -2.711,0.235l-0.122,0.416c0.479,0.099 0.838,0.525 0.838,1.033c0,0.582 -0.474,1.055 -1.057,1.055c-0.583,0 -1.055,-0.473 -1.055,-1.055c0,-0.508 0.358,-0.934 0.836,-1.033l0.133,-0.463c-1.634,-0.225 -2.935,-0.863 -2.935,-0.863l0.231,-0.705c0.988,0.33 1.846,0.529 2.624,0.613c0.761,0.082 1.335,0.117 1.802,0.117" id="path224"/>
     </g>
     <g id="g226">
      <path stroke-dasharray="2,2" fill="#4b4b4b" fill-rule="nonzero" d="m392.43649,36.2109l0.006,0.008c0.038,0.051 0.076,0.097 0.113,0.142l-0.313,0.227l-0.488,0.355c-0.027,-0.037 -0.795,-0.744 -1.401,-2.046c-0.025,0.041 -0.056,0.08 -0.09,0.119c-0.181,0.197 -0.435,0.299 -0.758,0.293l-0.015,0c-0.2,0 -0.337,0.066 -0.427,0.148c0.09,0.113 0.144,0.256 0.144,0.412c0,0.369 -0.3,0.67 -0.67,0.67c-0.369,0 -0.668,-0.301 -0.668,-0.67c0,-0.369 0.299,-0.668 0.668,-0.668c0.058,0 0.113,0.01 0.167,0.02c0.165,-0.182 0.425,-0.342 0.808,-0.334c0.196,0.002 0.341,-0.049 0.437,-0.155c0.111,-0.121 0.149,-0.296 0.16,-0.427c-0.001,-0.002 -0.001,-0.006 -0.003,-0.006c-0.436,-1.19 -0.311,-2.67 -0.311,-2.67l1.057,-0.041c0.022,0.539 0.099,1.482 0.372,2.23c0.526,1.45 1.185,2.356 1.212,2.393" id="path228"/>
     </g>
     <g id="g230">
      <path stroke-dasharray="2,2" fill="#4b4b4b" fill-rule="nonzero" d="m410.70309,39.1855c-0.367,0 -0.668,-0.299 -0.668,-0.668c0,-0.059 0.008,-0.113 0.023,-0.166c-0.183,-0.166 -0.343,-0.428 -0.337,-0.811c0.003,-0.197 -0.047,-0.339 -0.155,-0.435c-0.084,-0.076 -0.191,-0.115 -0.295,-0.141c-0.787,1.102 -1.756,1.776 -1.756,1.776l-0.759,-0.815c0.574,-0.521 1.16,-1.174 1.728,-1.99c0.395,-0.563 0.799,-1.289 1.137,-2.014l1.023,0.487c0,0 -0.466,1.154 -1.125,2.191c0.114,0.039 0.229,0.102 0.33,0.191c0.202,0.182 0.299,0.438 0.293,0.758c-0.001,0.209 0.067,0.35 0.149,0.442c0.115,-0.086 0.258,-0.143 0.412,-0.143c0.371,0 0.67,0.301 0.67,0.67c0,0.369 -0.299,0.668 -0.67,0.668" id="path232"/>
     </g>
     <g id="g234">
      <path stroke-dasharray="2,2" fill="#4b4b4b" fill-rule="nonzero" d="m408.04691,29.9844c-1.41,-0.687 -3.729,-1.594 -6.782,-2.02c-1.198,-0.166 -2.359,-0.228 -3.428,-0.228c-1.391,0 -2.62,0.103 -3.562,0.223c-1.077,0.136 -1.918,0.302 -2.433,0.418c0.124,-0.391 0.274,-0.78 0.454,-1.159c0.003,-0.009 0.008,-0.019 0.013,-0.027c0.021,-0.043 0.043,-0.09 0.065,-0.133c0.022,-0.045 0.043,-0.088 0.065,-0.127c0.006,-0.011 0.011,-0.023 0.017,-0.033c0.303,-0.57 0.667,-1.096 1.081,-1.549c1.44,-1.576 2.907,-1.824 2.921,-1.826l0.023,-0.004l0.021,-0.008c0.013,-0.004 1.314,-0.423 3.292,-0.423c1.945,0 3.855,0.392 5.673,1.166c1.348,0.689 2.623,1.736 3.254,2.669c0.488,0.723 0.842,1.495 1.051,2.295c0.111,0.426 0.199,1.108 0.146,1.825c-0.396,-0.266 -1.023,-0.647 -1.871,-1.059" id="path236"/>
     </g>
     <g id="g238">
      <path stroke-dasharray="2,2" fill="#4b4b4b" fill-rule="nonzero" d="m396.91699,36.6133c1.557,0 2.817,-1.262 2.817,-2.816c0,-1.557 -1.26,-2.815 -2.817,-2.815c-1.555,0 -2.816,1.258 -2.816,2.815c0,1.554 1.261,2.816 2.816,2.816m8.241,-0.068c0.961,0 1.744,-0.782 1.744,-1.744c0,-0.961 -0.783,-1.745 -1.744,-1.745c-0.961,0 -1.742,0.784 -1.742,1.745c0,0.962 0.781,1.744 1.742,1.744m-12.269,-0.668c-0.041,-0.059 -0.652,-0.924 -1.135,-2.252c-0.362,-0.996 -0.346,-2.444 -0.346,-2.461l0,-0.002c0,-0.34 0.019,-0.678 0.057,-1.012c0,-0.008 0,-0.012 0.002,-0.017c0.004,-0.043 0.011,-0.084 0.015,-0.127c0.03,-0.231 0.069,-0.465 0.119,-0.702c0.7,-0.177 4.878,-1.152 9.548,-0.502c2.927,0.407 5.15,1.272 6.499,1.926c1.122,0.545 1.842,1.037 2.12,1.239c-0.278,1.029 -1.041,2.64 -1.743,3.646c-2.005,2.865 -4.168,3.602 -5.277,3.783c-0.424,0.071 -0.763,0.11 -1.244,0.11c-0.447,0 -1.002,-0.036 -1.743,-0.114c-0.743,-0.078 -1.572,-0.273 -2.532,-0.595c-1.348,-0.452 -2.567,-1.161 -3.527,-2.049l-0.033,-0.03c-0.142,-0.13 -0.439,-0.406 -0.78,-0.841" id="path240"/>
     </g>
    </g>
   </g>
  </g>
  <ellipse stroke="#000" ry="38" rx="182" id="svg_1" cy="1020.11974" cx="536.24835" stroke-width="0" fill="#fff"/>
 </g>
</svg>